<?xml version="1.0" encoding="utf-8"?><svg xmlns="http://www.w3.org/2000/svg" xmlns:xlink="http://www.w3.org/1999/xlink"><symbol viewBox="0 0 60 61" id="nav-item1" xmlns="http://www.w3.org/2000/svg"><g transform="translate(-1)"><path d="M47.26 37.71a17.99 17.99 0 00-1.39 9.3c.225 2.062.633 4.1 1.22 6.09.315 1.03.713 2.034 1.19 3a26.02 26.02 0 011.6 2.83l-25.1.07v-.01c-.08-.3-1.59-6.18-4.93-7.69-.62.22-1.28.44-1.95.67a67.691 67.691 0 01-6.77 1.96c-.63.15-1.295.058-1.86-.26a3.143 3.143 0 01-1.35-1.73 4.983 4.983 0 01-.28-2.23 6.2 6.2 0 00.23-2.38c-.26-1.01-1.22-1.26-1.98-1.8-.62-.44.49-1.85.49-1.85s-1.18-.87-1.6-1.25c-.44-.36.18-.98.73-2.15a2.73 2.73 0 00.19-1.62c-.21-1.07-1.83-1.48-2.63-2.07-.38-.28-.99-.7-1.06-1.21-.11-.71.73-1.71 1.14-2.21a39.334 39.334 0 004.46-7.25c.16-.271.256-.576.28-.89-.02-1.43-2.09-2.02-2.28-3.41-.03-.408.042-.817.21-1.19a30.521 30.521 0 001.48-3.78 30.05 30.05 0 01.95-3.5 18.27 18.27 0 013.8-6.2c2.45-2.59 6.07-3.87 9.49-4.55a66.668 66.668 0 019.23-1.35c.1-.01.2-.01.3-.02 6.4-.32 11.46 1.85 16.42 5.73a15.579 15.579 0 015.63 8.09 29.082 29.082 0 011.01 8.2 14.377 14.377 0 01-2.3 7.7c-1.49 2.35-3.44 4.39-4.57 6.96z"/><path d="M44.26 37.71a17.99 17.99 0 00-1.39 9.3c.225 2.062.633 4.1 1.22 6.09.315 1.03.713 2.034 1.19 3a26.02 26.02 0 011.6 2.83l-19.23.05-2.87.01c-.07-.27-1.28-4.97-3.91-7.06a4.927 4.927 0 00-1.02-.63c-.03.01-.05.02-.08.03-.6.21-1.23.42-1.87.64-.01-.01-.03-.02-.04-.03a4.189 4.189 0 00-1.01-.64c-1.69.59-3.64 1.24-5.42 1.77-.76.23-1.49.43-2.16.6a3.143 3.143 0 01-1.35-1.73 4.983 4.983 0 01-.28-2.23 6.2 6.2 0 00.23-2.38c-.26-1.01-1.22-1.26-1.98-1.8-.62-.44.49-1.85.49-1.85s-1.18-.87-1.6-1.25c-.44-.36.18-.98.73-2.15a2.73 2.73 0 00.19-1.62c-.21-1.07-1.83-1.48-2.63-2.07-.38-.28-.99-.7-1.06-1.21-.11-.71.73-1.71 1.14-2.21a39.334 39.334 0 004.46-7.25c.16-.271.256-.576.28-.89-.02-1.43-2.09-2.02-2.28-3.41-.03-.408.042-.817.21-1.19a30.521 30.521 0 001.48-3.78 30.05 30.05 0 01.95-3.5 18.27 18.27 0 013.8-6.2c2.45-2.59 6.07-3.87 9.49-4.55a66.668 66.668 0 019.23-1.35c.45.03.89.07 1.32.13a24.658 24.658 0 0112.4 5.58 15.579 15.579 0 015.63 8.09 29.082 29.082 0 011.01 8.2 14.377 14.377 0 01-2.3 7.7c-1.49 2.35-3.44 4.39-4.57 6.96z"/><path d="M44.26 37.71a17.99 17.99 0 00-1.39 9.3c.225 2.062.633 4.1 1.22 6.09.315 1.03.713 2.034 1.19 3a26.02 26.02 0 011.6 2.83l-19.23.05c-.1-.38-1.62-6.18-4.93-7.68-.59.21-1.21.42-1.85.63a.418.418 0 01-.1.04c-.3-.26-.638-.476-1-.64-.02-.01-.03-.02-.05-.03-.59.21-1.22.42-1.86.64-1.95.65-4.04 1.31-5.72 1.73a2.523 2.523 0 01-.71-.6 3.365 3.365 0 01-.64-1.13 4.983 4.983 0 01-.28-2.23 6.2 6.2 0 00.23-2.38c-.26-1.01-1.22-1.26-1.98-1.8-.62-.44.49-1.85.49-1.85s-1.18-.87-1.6-1.25c-.44-.36.18-.98.73-2.15a2.73 2.73 0 00.19-1.62c-.21-1.07-1.83-1.48-2.63-2.07-.38-.28-.99-.7-1.06-1.21-.11-.71.73-1.71 1.14-2.21a39.334 39.334 0 004.46-7.25c.16-.271.256-.576.28-.89-.02-1.43-2.09-2.02-2.28-3.41-.03-.408.042-.817.21-1.19a30.521 30.521 0 001.48-3.78 30.05 30.05 0 01.95-3.5 18.27 18.27 0 013.8-6.2c2.45-2.59 6.07-3.87 9.49-4.55 2.536-.548 5.1-.955 7.68-1.22a24.658 24.658 0 0112.4 5.58 15.579 15.579 0 015.63 8.09 29.082 29.082 0 011.01 8.2 14.377 14.377 0 01-2.3 7.7c-1.49 2.35-3.44 4.39-4.57 6.96z"/><path d="M60 19s-8.51 11-19 11a16.519 16.519 0 01-2-.13C29.45 28.63 22 19 22 19s7.45-9.63 17-10.87A16.519 16.519 0 0141 8c10.49 0 19 11 19 11z"/><path d="M56 19s-7.45 9.63-17 10.87C29.45 28.63 22 19 22 19s7.45-9.63 17-10.87C48.55 9.37 56 19 56 19z"/><path d="M52 19a10.945 10.945 0 01-1.27 5.13A27.8 27.8 0 0141 26a27.8 27.8 0 01-9.73-1.87 11 11 0 010-10.26A27.8 27.8 0 0141 12a27.8 27.8 0 019.73 1.87A10.945 10.945 0 0152 19z"/><path d="M31.27 13.87a11 11 0 000 10.26A35.593 35.593 0 0122 19a35.593 35.593 0 019.27-5.13zM51.57 22.04c.784-2.73.483-5.657-.84-8.17A35.593 35.593 0 0160 19a35.593 35.593 0 01-9.27 5.13 10.87 10.87 0 00.84-2.09z"/><path d="M51.57 22.04a10.961 10.961 0 000-6.08 31.739 31.739 0 014.7 3.04 31.739 31.739 0 01-4.7 3.04z"/><circle cx="41" cy="19" r="7"/><circle cx="41" cy="19" r="3"/><circle cx="37" cy="16" r="3"/><circle cx="45" cy="23" r="1"/><path d="M4.885 20.074c.42-1.091.926-2.041 1.241-2.967.078-.23.146-.458.2-.684l.185-.791c.125-.532.256-1.074.412-1.62A19.324 19.324 0 019.956 7.9a18.2 18.2 0 011.367-1.634l1.454 1.372c-.433.461-.839.947-1.215 1.455a17.354 17.354 0 00-2.716 5.467c-.141.5-.265 1.007-.388 1.53l-.185.791c-.072.3-.159.593-.255.875-.39 1.127-.91 2.1-1.263 3.03l-1.87-.712z"/><path d="M7.513 15.739a1.007 1.007 0 00-1.2.736 32.562 32.562 0 01-1.428 3.6l1.87.712a31.8 31.8 0 001.5-3.836 1 1 0 00-.742-1.212zm5.264-8.103l-1.454-1.372A18.2 18.2 0 009.35 8.766a.98.98 0 00.309 1.4c.463.27 1.056.14 1.362-.3.172-.267.352-.524.541-.773.376-.509.782-.995 1.215-1.457zM7.428 12.5c-.1.259-.093.546.016.8l.1.166c.04.054.089.103.143.144a.638.638 0 00.153.112c.06.03.121.057.185.079.252.074.523.056.763-.051.112-.056.214-.132.3-.223a.984.984 0 00.19-1.045 1.085 1.085 0 00-.22-.319 1.031 1.031 0 00-.316-.227 1.006 1.006 0 00-.768-.016c-.25.115-.446.323-.546.58z"/><path d="M10.511 55a3.746 3.746 0 01-3.534-2.725 5.951 5.951 0 01-.329-2.694c.034-.263.091-.531.15-.8.121-.388.156-.798.1-1.2-.081-.314-.312-.471-.9-.807a8.675 8.675 0 01-.692-.425 1.444 1.444 0 01-.593-.984 2.519 2.519 0 01.325-1.443c-.34-.261-.713-.555-.929-.75-.924-.755-.311-1.839.055-2.486.135-.237.291-.512.44-.832.138-.317.177-.669.114-1.009-.051-.259-.776-.629-1.208-.85a7.226 7.226 0 01-1.038-.6 3.056 3.056 0 01-1.452-1.878c-.16-1.03.6-2.059 1.325-2.942a38.684 38.684 0 004.375-7.111c.077-.136.134-.282.17-.434 0-.275-.325-.591-.814-1.039a3.822 3.822 0 01-1.457-2.236 3.339 3.339 0 01.264-1.672 1 1 0 111.875.694 1.832 1.832 0 00-.159.693c.045.326.426.676.83 1.047a3.5 3.5 0 011.461 2.5 2.97 2.97 0 01-.385 1.351 40.37 40.37 0 01-4.58 7.432c-.762.927-.92 1.3-.925 1.447a4.3 4.3 0 00.6.485c.261.182.537.342.825.479.852.436 2.021 1.034 2.261 2.254.143.756.05 1.537-.267 2.238-.175.37-.354.69-.511.965-.049.087-.1.183-.15.27.414.334.98.758 1.22.934a1 1 0 01.187 1.428c-.148.193-.277.4-.385.618l.207.118a3.317 3.317 0 011.852 2.046 4.377 4.377 0 01-.087 2.128c-.046.209-.094.417-.12.627a3.991 3.991 0 00.235 1.784 1.77 1.77 0 002.059 1.331 77.815 77.815 0 008.6-2.6 1 1 0 01.657 1.89 78.72 78.72 0 01-8.847 2.665 4.02 4.02 0 01-.825.093zm-5.1-13.341l.032.029a.309.309 0 00-.03-.032l-.002.003zM12.05 7.95a1 1 0 01-.727-1.687c2.236-2.363 5.513-3.947 10.022-4.844A71.535 71.535 0 0129.921.1a1.003 1.003 0 01.158 2 69.617 69.617 0 00-8.339 1.28c-4.036.8-7.051 2.235-8.964 4.257a1 1 0 01-.726.313z"/><path d="M24.78 60a1 1 0 01-.971-.762c-.388-1.581-1.929-5.924-4.371-7.027a1 1 0 01.09-1.858c1.042-.354 1.987-.684 2.73-.944a84.01 84.01 0 011.486-.511c4.157-1.315 5-2.816 4.976-3.845a1 1 0 012-.047c.058 2.492-2.084 4.443-6.368 5.8-.259.083-.764.259-1.434.493l-.9.315A15.931 15.931 0 0125.536 58l22.682-.063-.067-.1a11.093 11.093 0 01-.775-1.307 20.957 20.957 0 01-1.241-3.13 35.651 35.651 0 01-1.258-6.267 18.938 18.938 0 011.466-9.82 1 1 0 011.834.8 16.915 16.915 0 00-1.314 8.78 33.539 33.539 0 001.183 5.916c.298.978.676 1.93 1.129 2.846.191.375.407.736.647 1.082a7.719 7.719 0 011.013 1.9 1 1 0 01-.952 1.3l-25.1.07L24.78 60zM11.194 18.567a1 1 0 01-.974-1.229l.1-.433c.193-.916.44-1.82.74-2.706a15.189 15.189 0 013.167-5.186 12.384 12.384 0 015.481-3.071 1 1 0 11.582 1.913 10.474 10.474 0 00-4.609 2.531 13.228 13.228 0 00-2.745 4.5c-.27.81-.492 1.635-.668 2.47l-.1.435a1 1 0 01-.974.776z"/><circle cx="10" cy="21" r="1"/><path d="M41 31c-10.859 0-19.432-10.923-19.791-11.388a1 1 0 010-1.224C21.568 17.923 30.141 7 41 7s19.432 10.923 19.791 11.388a1 1 0 010 1.224C60.432 20.077 51.859 31 41 31zM23.3 19c1.945 2.26 9.229 10 17.7 10s15.759-7.739 17.7-10C56.756 16.74 49.472 9 41 9s-15.759 7.739-17.7 10z"/><path d="M40.3 9.02a1 1 0 01-.044-2C40.5 7.01 40.755 7 41 7h.12c.207 0 .426.01.634.021.543.028.966.482.956 1.026a.992.992 0 01-.99.973h-.02c-.226-.011-.408-.02-.58-.02H41c-.216 0-.439.009-.655.019l-.045.001zM41 31h-.12c-.207 0-.426-.01-.634-.021a1.039 1.039 0 01-.991-1.026.962.962 0 01.955-.973h.144c.172.01.354.019.526.019H41c.216 0 .439-.009.655-.019l.095 1-.03 1c-.22.01-.475.02-.72.02zm-9.729-5.87a1 1 0 01-.885-.532 12 12 0 010-11.2 1 1 0 111.767.936 10 10 0 000 9.324 1 1 0 01-.882 1.468v.004zm19.458 0a1 1 0 01-.882-1.468 10 10 0 000-9.324 1 1 0 111.767-.936 12 12 0 010 11.2 1 1 0 01-.885.528zM34 20a1 1 0 01-1-1 8.009 8.009 0 018-8 1 1 0 010 2 6.006 6.006 0 00-6 6 1 1 0 01-1 1zm7 7a1 1 0 010-2 6.006 6.006 0 006-6 1 1 0 012 0 8.009 8.009 0 01-8 8zm0-5a3 3 0 110-6 3 3 0 010 6zm0-4a1 1 0 100 2 1 1 0 000-2z"/><path d="M41 27c-10.729 0-19.276-6.933-19.636-7.228a1 1 0 010-1.544C21.724 17.933 30.271 11 41 11s19.276 6.933 19.636 7.228a1 1 0 010 1.544C60.276 20.067 51.729 27 41 27zm-17.323-8c2.533 1.777 9.39 6 17.323 6s14.79-4.223 17.323-6c-2.533-1.777-9.39-6-17.323-6s-14.79 4.223-17.323 6zM41 38a1 1 0 01-1-1v-3a1 1 0 012 0v3a1 1 0 01-1 1zm9-2.412a1 1 0 01-.867-.5l-1.5-2.6a1 1 0 111.732-1l1.5 2.6a1 1 0 01-.865 1.5zM48.5 7.01a1 1 0 01-.865-1.5l1.5-2.6a1 1 0 111.732 1l-1.5 2.6a1 1 0 01-.867.5zM41 5a1 1 0 01-1-1V1a1 1 0 012 0v3a1 1 0 01-1 1zm-7.5 2.01a1 1 0 01-.867-.5l-1.5-2.6a1 1 0 111.732-1l1.5 2.6a1 1 0 01-.865 1.5zM32 35.588a1 1 0 01-.865-1.5l1.5-2.6a1 1 0 111.732 1l-1.5 2.6a1 1 0 01-.867.5z"/></g></symbol><symbol viewBox="0 0 60 61" id="nav-item2" xmlns="http://www.w3.org/2000/svg"><g transform="translate(-1 -1)"><path d="M47.26 38.71a17.99 17.99 0 00-1.39 9.3c.225 2.062.633 4.1 1.22 6.09.317 1.033.715 2.04 1.19 3.01a24.992 24.992 0 011.6 2.82l-25.1.07v-.01c-.08-.3-1.59-6.18-4.93-7.69-.62.22-1.28.44-1.95.67a67.691 67.691 0 01-6.77 1.96c-.63.15-1.295.058-1.86-.26a3.143 3.143 0 01-1.35-1.73 4.983 4.983 0 01-.28-2.23 6.2 6.2 0 00.23-2.38c-.26-1.01-1.22-1.26-1.98-1.8-.62-.44.49-1.85.49-1.85s-1.18-.87-1.6-1.24c-.44-.37.18-.99.73-2.16a2.73 2.73 0 00.19-1.62c-.21-1.07-1.83-1.47-2.63-2.07-.38-.28-.99-.7-1.06-1.21-.11-.71.73-1.71 1.14-2.21a39.334 39.334 0 004.46-7.25c.16-.271.256-.576.28-.89-.02-1.43-2.09-2.02-2.28-3.41-.03-.408.042-.817.21-1.19a30.521 30.521 0 001.48-3.78 30.05 30.05 0 01.95-3.5 18.27 18.27 0 013.8-6.2c2.45-2.59 6.07-3.87 9.49-4.55a66.668 66.668 0 019.23-1.35c.1-.01.2-.01.3-.02 6.4-.32 11.46 1.85 16.42 5.74a15.515 15.515 0 015.63 8.08 29.127 29.127 0 011.01 8.2 14.377 14.377 0 01-2.3 7.7c-1.49 2.36-3.44 4.39-4.57 6.96z"/><path d="M44.26 38.71a17.99 17.99 0 00-1.39 9.3c.225 2.062.633 4.1 1.22 6.09.317 1.033.715 2.04 1.19 3.01a24.992 24.992 0 011.6 2.82l-19.23.05-2.87.01c-.07-.27-1.28-4.97-3.91-7.06a4.927 4.927 0 00-1.02-.63c-.03.01-.05.02-.08.03-.6.21-1.23.42-1.87.64-.01-.01-.03-.02-.04-.03a4.189 4.189 0 00-1.01-.64c-1.69.59-3.64 1.24-5.42 1.77-.76.23-1.49.43-2.16.6a3.143 3.143 0 01-1.35-1.73 4.983 4.983 0 01-.28-2.23 6.2 6.2 0 00.23-2.38c-.26-1.01-1.22-1.26-1.98-1.8-.62-.44.49-1.85.49-1.85s-1.18-.87-1.6-1.24c-.44-.37.18-.99.73-2.16a2.73 2.73 0 00.19-1.62c-.21-1.07-1.83-1.47-2.63-2.07-.38-.28-.99-.7-1.06-1.21-.11-.71.73-1.71 1.14-2.21a39.334 39.334 0 004.46-7.25c.16-.271.256-.576.28-.89-.02-1.43-2.09-2.02-2.28-3.41-.03-.408.042-.817.21-1.19a30.521 30.521 0 001.48-3.78 30.05 30.05 0 01.95-3.5 18.27 18.27 0 013.8-6.2c2.45-2.59 6.07-3.87 9.49-4.55a66.668 66.668 0 019.23-1.35c.45.03.89.07 1.32.13a24.59 24.59 0 0112.4 5.59 15.515 15.515 0 015.63 8.08 29.127 29.127 0 011.01 8.2 14.377 14.377 0 01-2.3 7.7c-1.49 2.36-3.44 4.39-4.57 6.96z"/><path d="M44.26 38.71a17.99 17.99 0 00-1.39 9.3c.225 2.062.633 4.1 1.22 6.09.317 1.033.715 2.04 1.19 3.01a24.992 24.992 0 011.6 2.82l-19.23.05c-.1-.38-1.62-6.18-4.93-7.68-.59.21-1.21.42-1.85.63a.418.418 0 01-.1.04c-.3-.26-.638-.476-1-.64-.02-.01-.03-.02-.05-.03-.59.21-1.22.42-1.86.64-1.95.65-4.04 1.31-5.72 1.73a2.523 2.523 0 01-.71-.6 3.365 3.365 0 01-.64-1.13 4.983 4.983 0 01-.28-2.23 6.2 6.2 0 00.23-2.38c-.26-1.01-1.22-1.26-1.98-1.8-.62-.44.49-1.85.49-1.85s-1.18-.87-1.6-1.24c-.44-.37.18-.99.73-2.16a2.73 2.73 0 00.19-1.62c-.21-1.07-1.83-1.47-2.63-2.07-.38-.28-.99-.7-1.06-1.21-.11-.71.73-1.71 1.14-2.21a39.334 39.334 0 004.46-7.25c.16-.271.256-.576.28-.89-.02-1.43-2.09-2.02-2.28-3.41-.03-.408.042-.817.21-1.19a30.521 30.521 0 001.48-3.78 30.05 30.05 0 01.95-3.5 18.27 18.27 0 013.8-6.2c2.45-2.59 6.07-3.87 9.49-4.55 2.536-.548 5.1-.955 7.68-1.22a24.59 24.59 0 0112.4 5.59 15.515 15.515 0 015.63 8.08 29.127 29.127 0 011.01 8.2 14.377 14.377 0 01-2.3 7.7c-1.49 2.36-3.44 4.39-4.57 6.96z"/><path d="M32 21a3 3 0 01-3 3h-6a3 3 0 01-3-3c0-.1.01-.21.02-.31s.02-.18.04-.28c.03-.14.07-.277.12-.41a2.838 2.838 0 01.9-1.3A3.266 3.266 0 0121 18a3 3 0 013-3c.38 0 .758.075 1.11.22a2.979 2.979 0 011.39-1.82A3 3 0 0131 16a2.958 2.958 0 01-.96 2.19 2.94 2.94 0 011.78 1.8l.06.18c.081.27.122.549.12.83z"/><path d="M29 21a3 3 0 01-3 3h-3a3 3 0 01-3-3c0-.1.01-.21.02-.31s.02-.18.04-.28c.03-.14.07-.277.12-.41a2.838 2.838 0 01.9-1.3A3.266 3.266 0 0121 18a3 3 0 013-3c.38 0 .758.075 1.11.22a2.979 2.979 0 011.39-1.82A3 3 0 0128 16a2.958 2.958 0 01-.96 2.19 2.94 2.94 0 011.78 1.8l.06.18c.081.27.122.549.12.83zM60 36a3 3 0 01-3 3h-6a2.993 2.993 0 01-2.83-2.02 2.985 2.985 0 011.79-3.79 2.984 2.984 0 01-.43-3.89c.22-.329.506-.608.84-.82l4.5 1.7c.01.011.017.025.02.04A2.93 2.93 0 0156 30a3 3 0 013 3c-.001.236-.028.47-.08.7A2.993 2.993 0 0160 36z"/><path d="M57 36a3 3 0 01-3 3h-3a2.993 2.993 0 01-2.83-2.02 2.985 2.985 0 011.79-3.79 2.984 2.984 0 01-.43-3.89l2.34.88c.01.011.017.025.02.04A2.93 2.93 0 0153 30a3 3 0 013 3c-.001.236-.028.47-.08.7A2.993 2.993 0 0157 36zM60 2L45.86 23.21l-8.49 1.42 1.42-8.49z"/><path d="M60 2L38.79 16.14l-9.9-8.48zM60 2l-5.66 31.11-2.47-2.89-6.01-7.01L55.87 8.19z"/><path d="M55.87 8.19l-4 22.03-6.01-7.01zM4.885 21.074c.42-1.091.926-2.041 1.241-2.967.078-.23.146-.458.2-.684l.185-.791c.125-.532.256-1.074.412-1.62A19.324 19.324 0 019.956 8.9a18.2 18.2 0 011.367-1.634l1.454 1.372c-.433.461-.839.947-1.215 1.455a17.354 17.354 0 00-2.716 5.467c-.141.5-.265 1.007-.388 1.53l-.185.791c-.072.3-.159.593-.255.875-.391 1.127-.91 2.1-1.263 3.03l-1.87-.712z"/><path d="M7.513 16.739a1.007 1.007 0 00-1.2.736 32.562 32.562 0 01-1.428 3.6l1.87.712a31.8 31.8 0 001.5-3.836 1 1 0 00-.742-1.212zm5.264-8.103l-1.454-1.372A18.2 18.2 0 009.35 9.766a.98.98 0 00.309 1.4c.463.27 1.056.14 1.362-.3.172-.267.352-.524.541-.773.376-.509.782-.995 1.215-1.457zM7.427 13.5a1.07 1.07 0 00.017.8l.1.166c.04.054.089.103.143.144a.638.638 0 00.153.112c.06.03.121.057.185.079.252.074.523.056.763-.051.112-.056.214-.132.3-.223a.984.984 0 00.19-1.045 1.085 1.085 0 00-.22-.319 1.031 1.031 0 00-.316-.227 1.006 1.006 0 00-.768-.016c-.25.115-.446.323-.547.58z"/><path d="M10.511 56a3.746 3.746 0 01-3.534-2.725 5.951 5.951 0 01-.329-2.694c.034-.263.091-.531.15-.8.121-.388.156-.798.1-1.2-.081-.314-.312-.471-.9-.807a8.675 8.675 0 01-.692-.425 1.444 1.444 0 01-.593-.984 2.519 2.519 0 01.325-1.443c-.34-.261-.713-.555-.929-.75-.924-.755-.311-1.839.055-2.486.135-.237.291-.512.44-.832.138-.317.177-.669.114-1.009-.051-.259-.776-.629-1.208-.85a7.226 7.226 0 01-1.038-.6 3.056 3.056 0 01-1.452-1.878c-.16-1.03.6-2.059 1.325-2.942a38.684 38.684 0 004.375-7.111c.077-.136.134-.282.17-.434 0-.275-.325-.591-.814-1.039a3.822 3.822 0 01-1.457-2.236 3.339 3.339 0 01.264-1.672 1 1 0 111.875.694 1.832 1.832 0 00-.159.693c.045.326.426.676.83 1.047a3.5 3.5 0 011.461 2.5 2.97 2.97 0 01-.385 1.351 40.37 40.37 0 01-4.58 7.432c-.762.927-.92 1.3-.925 1.447a4.3 4.3 0 00.6.485c.261.182.537.342.825.479.852.436 2.021 1.034 2.261 2.254.143.756.05 1.537-.267 2.238-.175.37-.354.69-.511.965-.049.087-.1.183-.15.27.414.334.98.758 1.22.934a1 1 0 01.187 1.428c-.148.193-.277.4-.385.618l.207.118a3.317 3.317 0 011.852 2.046 4.377 4.377 0 01-.087 2.128c-.046.209-.094.417-.12.627a3.991 3.991 0 00.235 1.784 1.772 1.772 0 002.059 1.331 77.815 77.815 0 008.6-2.6 1 1 0 01.657 1.89 78.72 78.72 0 01-8.847 2.665 4.02 4.02 0 01-.825.093zm-5.1-13.341l.032.029a.309.309 0 00-.03-.032l-.002.003zM12.05 8.95a1 1 0 01-.727-1.687c2.236-2.363 5.513-3.947 10.022-4.844a66.744 66.744 0 019.673-1.388 23.13 23.13 0 0112.872 3.09 1 1 0 01-.45 1.889h-.01a1 1 0 01-.494-.131 20.835 20.835 0 00-11.817-2.85c-3.155.221-6.29.673-9.379 1.351-4.036.8-7.051 2.235-8.964 4.257a1 1 0 01-.726.313z"/><path d="M24.78 61a1 1 0 01-.971-.762c-.388-1.581-1.929-5.924-4.371-7.027a1 1 0 01.09-1.858c1.042-.354 1.987-.684 2.73-.944a84.01 84.01 0 011.486-.511c4.157-1.315 5-2.816 4.976-3.845a1 1 0 01.98-1.023h.024a1 1 0 011 .976c.058 2.492-2.084 4.443-6.368 5.8-.259.083-.764.259-1.434.493l-.9.315A15.931 15.931 0 0125.536 59l22.682-.063-.067-.1a11.093 11.093 0 01-.775-1.307 20.957 20.957 0 01-1.241-3.13 35.651 35.651 0 01-1.258-6.267 18.94 18.94 0 011.466-9.82c.28-.641.607-1.261.976-1.856a1 1 0 011.7 1.052c-.32.512-.602 1.047-.843 1.6a16.921 16.921 0 00-1.315 8.783 33.539 33.539 0 001.183 5.916c.298.978.676 1.93 1.129 2.846.191.375.407.736.647 1.082a7.719 7.719 0 011.013 1.9 1 1 0 01-.952 1.3l-25.1.07L24.78 61zM11.194 19.567a1 1 0 01-.974-1.229l.1-.433c.193-.916.44-1.82.74-2.706a15.189 15.189 0 013.167-5.186 12.384 12.384 0 015.481-3.071 1 1 0 11.582 1.913 10.474 10.474 0 00-4.609 2.531 13.21 13.21 0 00-2.744 4.5 22.24 22.24 0 00-.669 2.47l-.1.435a1 1 0 01-.974.776z"/><circle cx="10" cy="22" r="1"/><path d="M37.373 25.627a1 1 0 01-.986-1.164l1.413-8.485a1 1 0 01.431-.668L59.445 1.168a1 1 0 011.387 1.387L46.689 23.768a1 1 0 01-.668.432l-8.484 1.414c-.054.009-.11.013-.164.013zm2.327-8.893l-1.11 6.677 6.676-1.111L56.4 5.605 39.7 16.734z"/><path d="M38.787 17.142a.993.993 0 01-.65-.241l-9.9-8.485a1 1 0 01.472-1.743l31.112-5.657a1 1 0 01.358 1.968L31.134 8.265l8.3 7.118a1 1 0 01-.651 1.759h.004z"/><path d="M54.343 34.113a1 1 0 01-.759-.349l-8.485-9.9a1 1 0 111.517-1.3l7.118 8.305 5.283-29.048a1 1 0 111.966.358l-5.657 31.113a1 1 0 01-.983.821zm-16.97-8.486a1 1 0 01-.707-1.707l7.07-7.071a1 1 0 011.414 1.414l-7.07 7.071a.993.993 0 01-.707.293zM25 39a1 1 0 01-.8-1.6s.219-.293.623-.808a1.002 1.002 0 011.577 1.236c-.383.487-.591.766-.6.772a1 1 0 01-.8.4zm3.467-4.274a1 1 0 01-.76-1.65c.374-.438.772-.9 1.192-1.375a1 1 0 111.5 1.324c-.414.468-.8.92-1.172 1.35a1 1 0 01-.76.351zm4.233-4.682a1 1 0 01-.722-1.692c.416-.432.841-.865 1.276-1.3a1 1 0 111.414 1.413 92.2 92.2 0 00-1.246 1.274 1 1 0 01-.722.305z"/><path d="M37.246 25.657a1 1 0 01-.663-1.749c.255-.225.511-.448.767-.668a1 1 0 011.3 1.52 51.87 51.87 0 00-.741.646 1 1 0 01-.663.251zM29 25h-6a4 4 0 01-2.985-6.66A3.918 3.918 0 0120 18a4.021 4.021 0 014.521-3.964 4 4 0 017 3.86A4 4 0 0129 25zm-5-9a2 2 0 00-2 2c.002.165.021.329.058.489a1 1 0 01-.4 1.027A2 2 0 0023 23h6a2 2 0 00.7-3.871 1 1 0 01-.332-1.677c.407-.373.637-.9.632-1.452a2 2 0 00-3.923-.523 1 1 0 01-1.346.668A1.941 1.941 0 0024 16zm33 24h-6a3.975 3.975 0 01-2.827-1.173 3.925 3.925 0 01-.949-1.524A3.828 3.828 0 0147 36a4.006 4.006 0 011.48-3.1 4 4 0 011.352-5.259 1 1 0 011.076 1.686A1.977 1.977 0 0050 31c-.004.552.227 1.08.635 1.452a1 1 0 01-.332 1.677A2 2 0 0049 36c0 .216.036.431.108.635A1.986 1.986 0 0051 38h6a2 2 0 001.413-3.413l-.082-.079a1.089 1.089 0 01-.389-1.019A2.29 2.29 0 0058 33a2 2 0 00-2-2c-.25 0-.498.05-.73.145a1.022 1.022 0 11-.445-1.964c.38-.12.776-.18 1.175-.181a4 4 0 013.985 4.341A4 4 0 0157 40z"/></g></symbol><symbol viewBox="0 0 55 60" id="nav-item3" xmlns="http://www.w3.org/2000/svg"><path d="M47.13 37.71a17.99 17.99 0 00-1.39 9.3c.225 2.062.633 4.1 1.22 6.09.315 1.03.713 2.034 1.19 3a26.02 26.02 0 011.6 2.83l-25.1.07v-.01c-.08-.3-1.59-6.18-4.93-7.69-.62.21-1.27.44-1.94.67A67.8 67.8 0 0111 53.93c-.63.15-1.295.058-1.86-.26h-.01a3.2 3.2 0 01-1.34-1.73 4.988 4.988 0 01-.29-2.23c.239-.77.32-1.579.24-2.38-.26-1.01-1.23-1.26-1.99-1.8-.61-.44.5-1.85.5-1.85s-1.18-.87-1.6-1.25c-.44-.36.17-.98.73-2.15a2.73 2.73 0 00.19-1.62c-.21-1.07-1.84-1.48-2.64-2.07-.37-.28-.98-.7-1.05-1.21-.11-.71.73-1.71 1.14-2.21a39.334 39.334 0 004.46-7.25c.16-.271.256-.576.28-.89-.02-1.43-2.09-2.02-2.29-3.41a2.6 2.6 0 01.22-1.19 30.521 30.521 0 001.48-3.78 28.27 28.27 0 01.95-3.5 18.27 18.27 0 013.8-6.2c2.45-2.59 6.07-3.87 9.49-4.55a66.668 66.668 0 019.23-1.35c.1-.01.2-.01.3-.02 6.4-.32 11.46 1.85 16.41 5.73a15.54 15.54 0 015.64 8.09 29.082 29.082 0 011.01 8.2 14.377 14.377 0 01-2.3 7.7c-1.49 2.35-3.45 4.39-4.57 6.96z"/><path d="M44.13 37.71a17.99 17.99 0 00-1.39 9.3c.225 2.062.633 4.1 1.22 6.09.315 1.03.713 2.034 1.19 3a26.02 26.02 0 011.6 2.83l-19.23.05-2.87.01c-.07-.27-1.28-4.96-3.9-7.05a4.786 4.786 0 00-1.03-.64c-.03.01-.05.02-.08.03-.59.2-1.22.42-1.86.64-.02-.01-.03-.03-.05-.04a4.475 4.475 0 00-1.01-.63c-1.69.59-3.64 1.24-5.42 1.77-.76.22-1.49.43-2.16.6h-.01a3.2 3.2 0 01-1.34-1.73 4.988 4.988 0 01-.29-2.23c.239-.77.32-1.579.24-2.38-.26-1.01-1.23-1.26-1.99-1.8-.61-.44.5-1.85.5-1.85s-1.18-.87-1.6-1.25c-.44-.36.17-.98.73-2.15a2.73 2.73 0 00.19-1.62c-.21-1.07-1.84-1.48-2.64-2.07-.37-.28-.98-.7-1.05-1.21-.11-.71.73-1.71 1.14-2.21a39.334 39.334 0 004.46-7.25c.16-.271.256-.576.28-.89-.02-1.43-2.09-2.02-2.29-3.41a2.6 2.6 0 01.22-1.19 30.521 30.521 0 001.48-3.78 28.27 28.27 0 01.95-3.5 18.27 18.27 0 013.8-6.2c2.45-2.59 6.07-3.87 9.49-4.55a66.668 66.668 0 019.23-1.35c.45.03.89.07 1.32.13a24.589 24.589 0 0112.39 5.58 15.54 15.54 0 015.64 8.09 29.082 29.082 0 011.01 8.2 14.377 14.377 0 01-2.3 7.7c-1.49 2.35-3.45 4.39-4.57 6.96z"/><path d="M44.13 37.71a17.99 17.99 0 00-1.39 9.3c.225 2.062.633 4.1 1.22 6.09.315 1.03.713 2.034 1.19 3a26.02 26.02 0 011.6 2.83l-19.23.05c-.1-.38-1.62-6.18-4.93-7.68-.59.2-1.2.42-1.84.64l-.1.03a4.189 4.189 0 00-1.01-.64c-.02-.01-.03-.02-.05-.03-.59.21-1.22.42-1.86.63-1.95.66-4.04 1.31-5.72 1.74H12c-.264-.16-.5-.363-.7-.6a3.466 3.466 0 01-.64-1.13 4.988 4.988 0 01-.29-2.23c.239-.77.32-1.579.24-2.38-.26-1.01-1.23-1.26-1.99-1.8-.61-.44.5-1.85.5-1.85s-1.18-.87-1.6-1.25c-.44-.36.17-.98.73-2.15a2.73 2.73 0 00.19-1.62c-.21-1.07-1.84-1.48-2.64-2.07-.37-.28-.98-.7-1.05-1.21-.11-.71.73-1.71 1.14-2.21a39.334 39.334 0 004.46-7.25c.16-.271.256-.576.28-.89-.02-1.43-2.09-2.02-2.29-3.41a2.6 2.6 0 01.22-1.19 30.521 30.521 0 001.48-3.78 28.27 28.27 0 01.95-3.5 18.27 18.27 0 013.8-6.2c2.45-2.59 6.07-3.87 9.49-4.55 2.536-.548 5.1-.955 7.68-1.22a24.589 24.589 0 0112.39 5.58 15.54 15.54 0 015.64 8.09 29.082 29.082 0 011.01 8.2 14.377 14.377 0 01-2.3 7.7c-1.49 2.35-3.45 4.39-4.57 6.96z"/><path d="M46.02 30.88c-.01.01-.02.02-.03.02C44.08 32.75 42 35.12 42 38a8.614 8.614 0 01-.41 2.79 1 1 0 01-1.88.01 4.93 4.93 0 00-.82-1.28A18.793 18.793 0 0036 37c-2.83-2.12-2.16-5.76-1.51-7.69.06-.19.12-.37.18-.52l11.35 2.09z"/><path d="M43.02 30.88c-.01.01-.02.02-.03.02C41.08 32.75 39 35.12 39 38a9.944 9.944 0 01-.11 1.52A18.793 18.793 0 0036 37c-2.83-2.12-2.16-5.76-1.51-7.69l8.53 1.57z"/><path d="M49.99 22c-.01-.68-.05-1.35-.11-2a22.693 22.693 0 00-.74-4.06A10.83 10.83 0 0046 10.88a11.6 11.6 0 00-1.11-.96c-.23-.18-.45-.35-.68-.52-.75-.56-1.49-1.07-2.22-1.51-.47-.3-.93-.56-1.4-.8A17.588 17.588 0 0035 5.21a16.163 16.163 0 00-1.99-.19c-.26-.01-.53-.02-.8-.02-.35 0-.71.01-1.07.03-.05 0-.1.01-.15.01-.11 0-.21.01-.32.02-.55.03-1.11.08-1.67.14-.72.08-1.43.17-2.15.28-.61.09-1.22.19-1.82.3-.96.17-1.91.35-2.83.54-.8.16-1.55.35-2.25.56-.664.197-1.315.434-1.95.71a9.737 9.737 0 00-3.18 2.11 13.589 13.589 0 00-2.29 3.3c-.24.49-.46 1.01-.66 1.54-.04.11-.08.24-.13.4-.29.96-.68 2.62-.68 2.62a8.7 8.7 0 00-.18 1.45 8.283 8.283 0 00.07 1.98V21A4.807 4.807 0 0014 25.14c.312.116.633.207.96.27h.03c.33.06.664.094 1 .1.658.028 1.318-.005 1.97-.1 2.61-.37 4.79-.71 6.66-.85.791-.07 1.586-.087 2.38-.05.667.033 1.33.127 1.98.28a7.639 7.639 0 013.58 2.03A24.107 24.107 0 0037 30.5c.606.365 1.25.663 1.92.89.456.154.925.271 1.4.35 1.532.227 3.096.114 4.58-.33a7.522 7.522 0 003.43-2.8c.517-.811.92-1.69 1.2-2.61.21-.646.344-1.313.4-1.99.044-.335.067-.672.07-1.01 0-.34 0-.67-.01-1z"/><path d="M46.99 22c-.01-.68-.05-1.35-.11-2a22.693 22.693 0 00-.74-4.06A10.83 10.83 0 0043 10.88a11.6 11.6 0 00-1.11-.96c-.23-.18-.45-.35-.68-.52-.75-.56-1.49-1.07-2.22-1.51-.47-.3-.93-.56-1.4-.8A17.588 17.588 0 0032 5.21c-.44-.07-.88-.12-1.33-.15-.55.03-1.11.08-1.67.14-.72.08-1.43.17-2.15.28-.61.09-1.22.19-1.82.3-.96.17-1.91.35-2.83.54-.8.16-1.55.35-2.25.56-.664.197-1.315.434-1.95.71a9.737 9.737 0 00-3.18 2.11 13.589 13.589 0 00-2.29 3.3c-.24.49-.46 1.01-.66 1.54-.04.11-.08.24-.13.4-.29.96-.68 2.62-.68 2.62a8.7 8.7 0 00-.18 1.45 8.283 8.283 0 00.07 1.98V21A4.807 4.807 0 0014 25.14c.312.116.633.207.96.27h.03a52.492 52.492 0 019.01-.9c.21.01.42.03.62.05.791-.07 1.586-.087 2.38-.05.667.033 1.33.127 1.98.28a7.639 7.639 0 013.58 2.03A24.107 24.107 0 0037 30.5c.606.365 1.25.663 1.92.89.456.154.925.271 1.4.35.533-.077 1.06-.187 1.58-.33a7.522 7.522 0 003.43-2.8c.517-.811.92-1.69 1.2-2.61.21-.646.344-1.313.4-1.99.044-.335.067-.672.07-1.01 0-.34 0-.67-.01-1zM4.754 20.079c.417-1.1.926-2.046 1.24-2.97.078-.23.145-.458.2-.683l.184-.792a33.89 33.89 0 01.413-1.622c.64-2.2 1.667-4.27 3.032-6.112.425-.57.883-1.117 1.371-1.634l1.452 1.375c-.434.46-.84.945-1.218 1.453-1.22 1.65-2.14 3.5-2.716 5.47-.142.5-.266 1.006-.388 1.528l-.183.791c-.072.3-.159.593-.255.876-.391 1.128-.912 2.1-1.261 3.028l-1.871-.708z"/><path d="M7.379 15.74a1.006 1.006 0 00-1.2.738 33.376 33.376 0 01-1.426 3.6l1.871.706a32.238 32.238 0 001.5-3.835 1 1 0 00-.745-1.209zm5.267-8.101l-1.452-1.375a18.239 18.239 0 00-1.977 2.502.981.981 0 00.308 1.4c.463.27 1.055.14 1.362-.3.172-.267.352-.524.541-.773.377-.508.784-.994 1.218-1.454zM7.3 12.505c-.098.259-.092.545.016.8l.1.166c.04.054.089.103.143.144a.582.582 0 00.153.113c.06.03.12.057.184.079.252.075.523.057.763-.049.112-.056.214-.132.3-.223a.986.986 0 00.19-1.048 1.1 1.1 0 00-.221-.318 1.026 1.026 0 00-.315-.227 1.009 1.009 0 00-.769-.015 1.065 1.065 0 00-.544.578z"/><path d="M10.387 54.994a3.734 3.734 0 01-3.538-2.729 5.815 5.815 0 01-.335-2.687c.035-.262.091-.524.149-.787.125-.391.162-.806.108-1.213-.079-.31-.308-.467-.9-.8a8.281 8.281 0 01-.7-.432 1.438 1.438 0 01-.589-.973 2.524 2.524 0 01.322-1.447c-.338-.259-.708-.55-.924-.74-.925-.778-.31-1.866.057-2.515.133-.235.286-.5.435-.817.136-.315.174-.663.109-1-.05-.265-.773-.633-1.2-.853a7.435 7.435 0 01-1.043-.6 3.108 3.108 0 01-1.449-1.866c-.153-1.04.6-2.062 1.317-2.939a38.643 38.643 0 004.378-7.121c.077-.134.136-.277.175-.426 0-.288-.325-.6-.816-1.053a3.819 3.819 0 01-1.459-2.227 3.364 3.364 0 01.27-1.681 1 1 0 111.871.7c-.101.22-.156.458-.16.7.043.308.425.658.829 1.028a3.482 3.482 0 011.465 2.5 2.885 2.885 0 01-.392 1.355A40.37 40.37 0 013.8 33.8c-.769.939-.926 1.3-.929 1.455.184.173.38.332.588.476.263.184.542.345.832.483.857.436 2.028 1.034 2.261 2.261a3.7 3.7 0 01-.269 2.236c-.17.357-.345.67-.5.941-.053.093-.11.2-.161.289.41.329.982.757 1.222.935a1 1 0 01.192 1.42c-.148.193-.276.4-.383.619l.214.123a3.3 3.3 0 011.844 2.046c.143.71.111 1.443-.094 2.137-.046.208-.093.415-.12.622a3.881 3.881 0 00.241 1.764A1.774 1.774 0 0010.8 52.95a83.191 83.191 0 008.591-2.594 1 1 0 01.656 1.889 84.861 84.861 0 01-8.842 2.664 4.013 4.013 0 01-.818.085zm-5.1-13.325l.017.015-.017-.015z"/><path d="M24.652 60a1 1 0 01-.971-.762c-.389-1.58-1.932-5.922-4.373-7.026a1 1 0 01.088-1.858 319.8 319.8 0 002.546-.883c.787-.276 1.38-.483 1.678-.577 4.155-1.3 5-2.806 4.974-3.836a1 1 0 01.976-1.024c.545.007.992.433 1.024.977.058 2.5-2.086 4.445-6.373 5.791-.286.09-.859.291-1.617.556-.225.08-.466.163-.721.252A15.963 15.963 0 0125.408 58l22.678-.062-.072-.109a11.082 11.082 0 01-.771-1.291A21.8 21.8 0 0146 53.394a35.065 35.065 0 01-1.252-6.264 18.89 18.89 0 011.46-9.818 24.305 24.305 0 012.942-4.678c.582-.784 1.184-1.595 1.7-2.417A13.427 13.427 0 0053 23.038a27.931 27.931 0 00-.971-7.915 14.423 14.423 0 00-5.287-7.57C41.5 3.445 36.646 1.733 30.988 2.031c-3.156.22-6.29.67-9.381 1.346-4.092.823-7.024 2.223-8.961 4.263a1 1 0 01-1.452-1.375c2.231-2.356 5.506-3.942 10.019-4.849A67.106 67.106 0 0130.886.033c6.168-.313 11.444 1.52 17.086 5.945a16.572 16.572 0 015.978 8.6A29.965 29.965 0 0155 23.067a15.375 15.375 0 01-2.449 8.219c-.562.887-1.186 1.727-1.789 2.54a22.451 22.451 0 00-2.715 4.286 16.888 16.888 0 00-1.308 8.778 33.23 33.23 0 001.175 5.91 19.7 19.7 0 001.13 2.86c.19.367.404.722.64 1.061.427.588.77 1.233 1.016 1.917a1 1 0 01-.953 1.293L24.655 60h-.003z"/><path d="M40 44a1 1 0 01-1-1c0-1.769 0-2.5-3.6-5.2-3.791-2.84-2.232-7.889-1.664-9.368a1 1 0 011.868.716c-.566 1.473-1.6 5.107 1 7.051 2.5 1.875 3.581 3.086 4.048 4.255A7.645 7.645 0 0041 38c0-3.225 2.171-5.762 4.3-7.818a1 1 0 01.7-.282l.03.98.707.707a1.354 1.354 0 01-.09.08C44.83 33.423 43 35.545 43 38c0 4.488-2.291 5.764-2.553 5.9A1 1 0 0140 44zM13 21h-2a1 1 0 010-2h2a1 1 0 001-1 1 1 0 012 0 3 3 0 01-3 3zm2 5.41a1 1 0 01-1-1V24a1 1 0 012 0v1.41a1 1 0 01-1 1zM22 22h-1a3 3 0 01-3-3v-1a3 3 0 013-3h1a1 1 0 010 2h-1a1 1 0 00-1 1v1a1 1 0 001 1h1a1 1 0 010 2zm-6-7h-3.92a1 1 0 010-2H16a1 1 0 010 2zm5-2a3 3 0 01-3-3V7.19a1 1 0 012 0V10a1 1 0 001 1 1 1 0 010 2zm5 7h-1a1 1 0 010-2h1a1 1 0 001-1v-2a1 1 0 012 0v2a3 3 0 01-3 3z"/><path d="M31 15a1 1 0 01-1-1v-1a1 1 0 00-1-1h-2a1 1 0 00-1 1v1a1 1 0 01-2 0v-1a3 3 0 013-3h2a3 3 0 013 3v1a1 1 0 01-1 1zm-5-7a1 1 0 01-1-1V6a1 1 0 012 0v1a1 1 0 01-1 1zm4 0a1 1 0 01-1-1V5.1a1 1 0 012 0V7a1 1 0 01-1 1zm6 3h-2a1 1 0 01-1-1V5.09a1 1 0 012 0V9h1a1 1 0 010 2zm-8 14.6a1 1 0 01-1-1V23a1 1 0 012 0v1.6a1 1 0 01-1 1zm7-2.6h-1a3 3 0 01-3-3v-1a1 1 0 012 0v1a1 1 0 001 1h1a1 1 0 010 2zm4-4h-1a3 3 0 010-6h1a1 1 0 010 2h-1a1 1 0 000 2h1a1 1 0 010 2zm2-7a1 1 0 01-1-1V8a1 1 0 012 0v3a1 1 0 01-1 1zm2 4a1 1 0 010-2 1 1 0 001-1v-2.99a1 1 0 012 0V13a3 3 0 01-3 3zm-2 8h-1a1 1 0 010-2h1a1 1 0 001-1v-2a1 1 0 012 0v2a3 3 0 01-3 3zm-3 8a1 1 0 01-1-1v-2a3 3 0 013-3h3a1 1 0 010 2h-3a1 1 0 00-1 1v2a1 1 0 01-1 1zm11.96-10H47a1 1 0 010-2h2.96a1 1 0 010 2zm-.17 4H47a1 1 0 010-2h2.79a1 1 0 010 2z"/><path d="M41.781 32.857c-4.476 0-7.341-2.8-9.925-5.327-2.771-2.71-5.991-2.247-12.407-1.324L18.1 26.4c-2.892.41-5.094-.154-6.534-1.68-2.269-2.406-1.711-6.241-1.486-7.36.061-.261.544-2.335.851-3.168A15.027 15.027 0 0114.1 9.016c1.622-1.711 4.281-2.949 7.9-3.678a63.336 63.336 0 019.086-1.31c.383-.018.755-.028 1.123-.028 4.677 0 8.778 1.583 13.3 5.131a12.483 12.483 0 014.593 6.54c.649 2.391.951 4.863.898 7.34a11.476 11.476 0 01-1.826 6.133 8.413 8.413 0 01-4.009 3.226c-1.1.314-2.24.478-3.384.487zm2.85-2.415l.265.964-.265-.964a6.5 6.5 0 002.849-2.368A9.5 9.5 0 0049 22.982a23.868 23.868 0 00-.818-6.765 10.558 10.558 0 00-3.9-5.511c-4.537-3.56-8.4-4.9-13.088-4.68A61.734 61.734 0 0022.4 7.3c-3.211.645-5.515 1.686-6.847 3.092a13.039 13.039 0 00-2.738 4.492c-.224.6-.634 2.3-.773 2.9-.359 1.786-.294 4.207.985 5.565.968 1.025 2.581 1.387 4.8 1.072l1.342-.191c6.615-.952 10.612-1.527 14.09 1.874 3.599 3.52 6.341 5.723 11.372 4.338z"/></symbol><symbol viewBox="0 0 60 61" id="nav-item4" xmlns="http://www.w3.org/2000/svg"><g transform="translate(-1)"><path d="M47.26 37.71a17.99 17.99 0 00-1.39 9.3c.225 2.062.633 4.1 1.22 6.09.317 1.033.715 2.04 1.19 3.01a24.992 24.992 0 011.6 2.82l-25.1.07v-.01c-.08-.3-1.59-6.18-4.93-7.69-.62.22-1.28.44-1.95.67a67.691 67.691 0 01-6.77 1.96c-.63.15-1.295.058-1.86-.26a3.143 3.143 0 01-1.35-1.73 4.983 4.983 0 01-.28-2.23 6.2 6.2 0 00.23-2.38c-.26-1.01-1.22-1.26-1.98-1.8-.62-.44.49-1.85.49-1.85s-1.18-.87-1.6-1.24c-.44-.37.18-.99.73-2.16a2.73 2.73 0 00.19-1.62c-.21-1.07-1.83-1.47-2.63-2.07-.38-.28-.99-.7-1.06-1.21-.11-.71.73-1.71 1.14-2.21a39.334 39.334 0 004.46-7.25c.16-.271.256-.576.28-.89-.02-1.43-2.09-2.02-2.28-3.41-.03-.408.042-.817.21-1.19a30.521 30.521 0 001.48-3.78 30.05 30.05 0 01.95-3.5 18.27 18.27 0 013.8-6.2c2.45-2.59 6.07-3.87 9.49-4.55a66.668 66.668 0 019.23-1.35c.1-.01.2-.01.3-.02 6.4-.32 11.46 1.85 16.42 5.74a15.515 15.515 0 015.63 8.08 29.127 29.127 0 011.01 8.2 14.377 14.377 0 01-2.3 7.7c-1.49 2.36-3.44 4.39-4.57 6.96z"/><path d="M44.26 37.71a17.99 17.99 0 00-1.39 9.3c.225 2.062.633 4.1 1.22 6.09.317 1.033.715 2.04 1.19 3.01a24.992 24.992 0 011.6 2.82l-19.23.05-2.87.01c-.07-.27-1.28-4.97-3.91-7.06a4.927 4.927 0 00-1.02-.63c-.03.01-.05.02-.08.03-.6.21-1.23.42-1.87.64-.01-.01-.03-.02-.04-.03a4.189 4.189 0 00-1.01-.64c-1.69.59-3.64 1.24-5.42 1.77-.76.23-1.49.43-2.16.6a3.143 3.143 0 01-1.35-1.73 4.983 4.983 0 01-.28-2.23 6.2 6.2 0 00.23-2.38c-.26-1.01-1.22-1.26-1.98-1.8-.62-.44.49-1.85.49-1.85s-1.18-.87-1.6-1.24c-.44-.37.18-.99.73-2.16a2.73 2.73 0 00.19-1.62c-.21-1.07-1.83-1.47-2.63-2.07-.38-.28-.99-.7-1.06-1.21-.11-.71.73-1.71 1.14-2.21a39.334 39.334 0 004.46-7.25c.16-.271.256-.576.28-.89-.02-1.43-2.09-2.02-2.28-3.41-.03-.408.042-.817.21-1.19a30.521 30.521 0 001.48-3.78 30.05 30.05 0 01.95-3.5 18.27 18.27 0 013.8-6.2c2.45-2.59 6.07-3.87 9.49-4.55a66.668 66.668 0 019.23-1.35c.45.03.89.07 1.32.13a24.59 24.59 0 0112.4 5.59 15.515 15.515 0 015.63 8.08 29.127 29.127 0 011.01 8.2 14.377 14.377 0 01-2.3 7.7c-1.49 2.36-3.44 4.39-4.57 6.96z"/><path d="M44.26 37.71a17.99 17.99 0 00-1.39 9.3c.225 2.062.633 4.1 1.22 6.09.317 1.033.715 2.04 1.19 3.01a24.992 24.992 0 011.6 2.82l-19.23.05c-.1-.38-1.62-6.18-4.93-7.68-.59.21-1.21.42-1.85.63a.418.418 0 01-.1.04c-.3-.26-.638-.476-1-.64-.02-.01-.03-.02-.05-.03-.59.21-1.22.42-1.86.64-1.95.65-4.04 1.31-5.72 1.73a2.523 2.523 0 01-.71-.6 3.365 3.365 0 01-.64-1.13 4.983 4.983 0 01-.28-2.23 6.2 6.2 0 00.23-2.38c-.26-1.01-1.22-1.26-1.98-1.8-.62-.44.49-1.85.49-1.85s-1.18-.87-1.6-1.24c-.44-.37.18-.99.73-2.16a2.73 2.73 0 00.19-1.62c-.21-1.07-1.83-1.47-2.63-2.07-.38-.28-.99-.7-1.06-1.21-.11-.71.73-1.71 1.14-2.21a39.334 39.334 0 004.46-7.25c.16-.271.256-.576.28-.89-.02-1.43-2.09-2.02-2.28-3.41-.03-.408.042-.817.21-1.19a30.521 30.521 0 001.48-3.78 30.05 30.05 0 01.95-3.5 18.27 18.27 0 013.8-6.2c2.45-2.59 6.07-3.87 9.49-4.55 2.536-.548 5.1-.955 7.68-1.22a24.59 24.59 0 0112.4 5.59 15.515 15.515 0 015.63 8.08 29.127 29.127 0 011.01 8.2 14.377 14.377 0 01-2.3 7.7c-1.49 2.36-3.44 4.39-4.57 6.96z"/><path d="M60 4.94v24.12a.937.937 0 01-.93.94H44.93a.938.938 0 00-.66.27.852.852 0 00-.17.25.83.83 0 00-.1.41v1.13a.937.937 0 01-.93.94h-6.13a.937.937 0 01-.93-.94v-1.13a.943.943 0 00-.93-.93H20.93a.937.937 0 01-.93-.94V4.94a.937.937 0 01.93-.94h38.14a.937.937 0 01.93.94z"/><path d="M57 5.01v23.758a.974.974 0 01-.93 1.01H44.93a.9.9 0 00-.66.29 1.046 1.046 0 00-.27.709v1.213a1.326 1.326 0 01-.07.4.959.959 0 01-.86.612h-6.13a.959.959 0 01-.86-.612 1.326 1.326 0 01-.07-.4v-1.213a.971.971 0 00-.93-1H20.93a.974.974 0 01-.93-1.01V5.01A.974.974 0 0120.93 4h35.14c.535.024.95.475.93 1.01z"/><path d="M40 25v1H24.89a.952.952 0 01-.89-1v-4h12.44A3.8 3.8 0 0140 25z"/><path d="M40 4.73V25a3.8 3.8 0 00-3.56-4H24V1.93a.914.914 0 01.89-.93h11.55A3.645 3.645 0 0140 4.73z"/><path d="M56 1.93V21H43.56A3.8 3.8 0 0040 25V4.73A3.645 3.645 0 0143.56 1h11.55a.914.914 0 01.89.93z"/><path d="M56 21v4a.952.952 0 01-.89 1H40v-1a3.8 3.8 0 013.56-4H56z"/><path d="M53 1.93V21H40.56a3.43 3.43 0 00-.56.05V4.73A3.645 3.645 0 0143.56 1h8.55a.914.914 0 01.89.93z"/><path d="M53 21v4a.952.952 0 01-.89 1H40v-1a3.8 3.8 0 013.56-4H53zM40.61 3.635a1 1 0 01-1-.995v-.01a1 1 0 111 1v.005zM12.777 7.636a17.172 17.172 0 00-3.3 5.138 17.482 17.482 0 00-.927 2.942c-.135.534-.221 1.006-.4 1.628a14.262 14.262 0 01-.616 1.636c-.278.634-.559 1.228-.779 1.806l-1.869-.712c.259-.677.555-1.3.815-1.894.206-.455.383-.923.531-1.4.122-.42.243-1.013.371-1.53A19.5 19.5 0 017.63 12a19.129 19.129 0 013.693-5.737l1.454 1.373z"/><path d="M9.185 11.027a1.025 1.025 0 001.344-.372 16.731 16.731 0 012.248-3.019l-1.454-1.372A18.693 18.693 0 008.8 9.647a.982.982 0 00.385 1.38zm-4.3 9.047l1.869.712c.22-.578.5-1.172.779-1.806.137-.315.273-.641.4-.981a.964.964 0 00-.643-1.3c-.506-.13-1.03.13-1.234.61-.105.285-.225.575-.354.871-.262.596-.558 1.22-.817 1.894zm4.101-5.98c.07-.241.05-.5-.059-.726l-.1-.161a.8.8 0 00-.137-.146.606.606 0 00-.147-.119 1.441 1.441 0 00-.179-.091 1.009 1.009 0 00-.77.024 1.035 1.035 0 00-.315.259c-.27.323-.323.776-.133 1.152.137.227.355.395.61.469a1.1 1.1 0 00.759-.092 1.04 1.04 0 00.471-.569z"/><path d="M12.05 7.95a1 1 0 01-.725-1.689 14.454 14.454 0 014.327-3.045 1 1 0 01.856 1.808 12.447 12.447 0 00-3.733 2.615 1 1 0 01-.725.311zM10.511 55a3.745 3.745 0 01-3.534-2.725 5.957 5.957 0 01-.328-2.694c.033-.263.091-.531.149-.8a2.75 2.75 0 00.1-1.2c-.081-.314-.312-.47-.9-.807a8.517 8.517 0 01-.693-.425 1.446 1.446 0 01-.593-.984 2.52 2.52 0 01.326-1.443 17.433 17.433 0 01-.93-.75c-.924-.756-.312-1.839.055-2.485.134-.238.291-.513.44-.833a1.73 1.73 0 00.113-1.009c-.05-.259-.775-.629-1.207-.85a7.292 7.292 0 01-1.039-.6 3.064 3.064 0 01-1.451-1.878c-.159-1.029.6-2.057 1.323-2.938a38.625 38.625 0 004.378-7.115c.077-.136.134-.282.17-.434 0-.275-.325-.591-.813-1.039a3.818 3.818 0 01-1.458-2.236 3.371 3.371 0 01.262-1.67 1 1 0 011.877.69 1.9 1.9 0 00-.159.7c.044.324.426.674.83 1.045a3.491 3.491 0 011.461 2.5c-.02.474-.154.936-.39 1.348A40.354 40.354 0 013.924 33.8C3.162 34.731 3 35.1 3 35.249c.185.18.386.342.6.486.261.182.537.342.824.479.853.436 2.022 1.034 2.262 2.254.143.756.05 1.537-.267 2.238-.174.37-.354.69-.511.966-.049.086-.1.182-.151.269.415.334.981.758 1.221.934a1 1 0 01.188 1.425 3.76 3.76 0 00-.386.618l.208.119a3.313 3.313 0 011.85 2.045 4.374 4.374 0 01-.086 2.127c-.046.209-.093.418-.12.627a4 4 0 00.235 1.785 1.778 1.778 0 002.058 1.331 77.946 77.946 0 008.6-2.6 1 1 0 11.656 1.89 78.783 78.783 0 01-8.847 2.665c-.27.06-.546.09-.823.093zm-5.1-13.34l.031.028-.031-.028zM38.86 3a1 1 0 01-.69-1.724 1 1 0 011.7.724 1 1 0 01-1 1h-.01z"/><path d="M24.78 60a1 1 0 01-.971-.762c-.389-1.581-1.93-5.924-4.371-7.027a1 1 0 01.09-1.858c1.044-.354 1.989-.685 2.733-.945.691-.241 1.212-.423 1.483-.51 4.158-1.315 5-2.816 4.977-3.845a1 1 0 01.979-1.023.973.973 0 011.023.976c.058 2.492-2.084 4.443-6.369 5.8-.258.083-.762.259-1.431.492l-.9.316A15.943 15.943 0 0125.536 58l22.682-.063-.067-.1c-.288-.415-.547-.85-.775-1.3a20.949 20.949 0 01-1.241-3.137 35.538 35.538 0 01-1.258-6.267 18.928 18.928 0 011.466-9.82c.089-.193 1.73-3.507 1.9-3.8a1 1 0 011.743.981c-.142.257-1.709 3.41-1.814 3.639a16.9 16.9 0 00-1.3 8.762 33.562 33.562 0 001.182 5.916c.3.978.677 1.93 1.129 2.847a9.4 9.4 0 00.647 1.079 7.752 7.752 0 011.014 1.9 1 1 0 01-.952 1.3l-25.1.07L24.78 60zM11.191 18.57a1 1 0 01-.976-1.222l.1-.44c.195-.916.444-1.82.745-2.708a15.043 15.043 0 013.174-5.187c.36-.382.756-.729 1.183-1.034A1 1 0 0116.583 9.6a5.98 5.98 0 00-.893.781 13.023 13.023 0 00-2.752 4.5 22.22 22.22 0 00-.674 2.471l-.1.435a1 1 0 01-.973.783z"/><circle cx="10" cy="21" r="1"/><path d="M40 28a1 1 0 01-1-1V4.727A2.648 2.648 0 0036.444 2H25v19.5a1 1 0 01-2 0V1.932A1.913 1.913 0 0124.889 0h11.555A4.649 4.649 0 0141 4.727V27a1 1 0 01-1 1z"/><path d="M40 27H24.889A1.949 1.949 0 0123 25v-4a1 1 0 011-1h12.444A4.8 4.8 0 0141 25v1a1 1 0 01-1 1zm-15-2h14a2.808 2.808 0 00-2.556-3H25v3z"/><path d="M43.07 34h-6.13a1.937 1.937 0 01-1.93-1.94v-1.13L20.93 31A1.937 1.937 0 0119 29.06V4.94A1.937 1.937 0 0120.93 3H24a1 1 0 010 2h-3.07L21 29.06 35.08 29a1.932 1.932 0 011.93 1.93v1.13l6.06-.06-.07-1.07A1.922 1.922 0 0144.93 29h14.14L59 4.94 56 5a1 1 0 010-2h3.07A1.937 1.937 0 0161 4.94v24.12A1.937 1.937 0 0159.07 31H44.93l.07 1.06A1.937 1.937 0 0143.07 34z"/><path d="M40 29.955a1 1 0 01-1-1v-1.864a1 1 0 012 0v1.864a1 1 0 01-1 1zM36 7h-8a1 1 0 010-2h8a1 1 0 010 2zm0 5h-8a1 1 0 010-2h8a1 1 0 010 2zm0 5h-8a1 1 0 010-2h8a1 1 0 010 2z"/><path d="M40 28a1 1 0 01-1-1V4.727A4.649 4.649 0 0143.556 0h11.555c1.055.013 1.9.877 1.889 1.932V21.5a1 1 0 01-2 0V2H43.556A2.648 2.648 0 0041 4.727V27a1 1 0 01-1 1z"/><path d="M55.111 27H40a1 1 0 01-1-1v-1a4.8 4.8 0 014.556-5H56a1 1 0 011 1v4a1.949 1.949 0 01-1.889 2zM41 25h13.991L55 22H43.556A2.808 2.808 0 0041 25zM52 7h-8a1 1 0 010-2h8a1 1 0 010 2zm0 5h-8a1 1 0 010-2h8a1 1 0 010 2zm0 5h-8a1 1 0 010-2h8a1 1 0 010 2z"/></g></symbol></svg>