<svg xmlns="http://www.w3.org/2000/svg" width="50" height="50" viewBox="0 0 50 50"><g><g><g><path fill="#8dd9ff" d="M25 50c13.807 0 25-11.193 25-25S38.807 0 25 0 0 11.193 0 25s11.193 25 25 25z"/></g><g opacity=".3"><g opacity=".3"><path fill="#fffff4" d="M.575 19.675A25.074 25.074 0 0 0 0 25.003c0 1.83.202 3.611.575 5.329 6.57 5.417 22.85 9.255 41.905 9.255.956 0 1.902-.013 2.842-.032A24.878 24.878 0 0 0 50 25.003c0-5.43-1.737-10.451-4.678-14.551-.94-.019-1.886-.032-2.842-.032-19.056 0-35.335 3.837-41.905 9.255z"/></g></g><g opacity=".4"><g opacity=".4"><path fill="#fffff4" d="M0 24.997c0 5.282 1.643 10.18 4.44 14.216 9.044 2.545 21.79 4.39 36.402 5.122C46.432 39.75 50 32.791 50 24.997a24.92 24.92 0 0 0-1.833-9.397c-20.248.475-37.714 3.054-48.026 6.75C.049 23.22 0 24.104 0 24.998z"/></g></g><g><path fill="#bbe6ff" d="M17.184 14.063c-.88.195-1.954 2.246-3.125 2.344-1.172.097-3.32 0-3.907.78-.28.376-.652 1.86-.962 3.126h12.437l.602-3.679c-.976-.683-4.167-2.766-5.045-2.571z"/></g><g><path fill="#3b87c5" d="M0 24.997c0 13.808 11.193 25 25 25s25-11.192 25-25c0-1.602-.157-3.168-.445-4.687H.445A25.103 25.103 0 0 0 0 24.998z"/></g><g><path fill="#3c9bd4" d="M24.958 25C15.71 25 7.228 27.008.58 30.353c2.354 10.789 11.67 18.974 23.008 19.605.47.016.937.042 1.413.042h.019c.466 0 .924-.027 1.386-.042 11.326-.628 20.636-8.796 23.004-19.567C42.752 27.023 34.24 25 24.958 25z"/></g><g><path fill="#fff" d="M18.526 8.982a2.32 2.32 0 0 0-.7.12 3.898 3.898 0 0 0-6.411 0 2.32 2.32 0 0 0-.701-.12 2.344 2.344 0 0 0-2.344 2.344h12.5a2.344 2.344 0 0 0-2.344-2.344z"/></g><g><path fill="#fff" d="M15.4 9.21c0-1.114.902-2.016 2.016-2.016.168 0 .328.026.484.065a2.863 2.863 0 0 1 2.107-.929 2.88 2.88 0 0 1 2.88 2.88H15.4z"/></g><g opacity=".5"><g opacity=".5"><path fill="#fff" d="M25 7.174c0-.949 1.193-1.718 2.665-1.718.222 0 .435.023.641.056.696-.484 1.682-.792 2.786-.792 2.103 0 3.807 1.099 3.807 2.454z"/></g></g><g opacity=".5"><g opacity=".5"><path fill="#fff" d="M38.82 14.054c0-.949 1.193-1.718 2.665-1.718.222 0 .435.023.641.056.696-.484 1.682-.792 2.786-.792 2.103 0 3.807 1.099 3.807 2.454z"/></g></g><g opacity=".5"><g opacity=".5"><path fill="#fff" d="M18.87 5.63c0-.917 1.176-1.66 2.626-1.66.219 0 .428.023.631.054.686-.467 1.657-.764 2.745-.764 2.072 0 3.751 1.06 3.751 2.37z"/></g></g><g><path fill="#fff" d="M34.02 12.495a2.279 2.279 0 0 1 2.279-2.278c.19 0 .371.03.548.073a3.236 3.236 0 0 1 2.381-1.05 3.255 3.255 0 0 1 3.256 3.255z"/></g><g><path fill="#bbe6ff" d="M39.844 20.315c0-2.474-2.128-3.43-3.125-3.906-1.182-.565-3.646-.39-4.688-2.344-1.041-1.953-1.761-3.125-2.343-3.125-1.107 0-3.842.52-5.47 2.344-1.323 1.482-1.041 2.864-3.124 3.906-.627.314-2.344.778-2.344 3.125v3.906c0 2.93 3.385 4.948 4.688 5.469 1.302.52 2.95 13.281 4.687 13.281 1.693 0 3.646-6.38 4.688-7.031 1.041-.651 3.124-.77 3.124-3.906v-7.032c2.082-2.081 3.907.391 3.907-4.687z"/></g><g><path fill="#75c3f0" d="M9.195 20.31c-.13.528-.248 1.019-.345 1.375-.166.61-.07 1.254.266 1.789 1.015 1.616 3.18 5.146 3.385 6.211.732 3.809 2.344 4.297 3.125 6.25.405 1.014 2.49.39 3.125 0 .896-.551 2.344-7.031 2.344-7.031l.537-8.594z"/></g><g><path fill="#8dd9ff" d="M23.438 29.685c1.302.52 2.95 13.281 4.687 13.281 1.693 0 3.646-6.38 4.688-7.031 1.041-.651 3.124-.77 3.124-3.906v-7.032c2.082-2.081 3.907.391 3.907-4.687H18.75v3.906c0 2.93 3.385 4.948 4.688 5.469z"/></g><g><path fill="#fff" d="M17.187 14.063c-.879.195-1.953 2.246-3.125 2.344-1.172.097-3.32 0-3.906.78-.198.265-.441 1.083-.676 1.986 1.134.09 1.445-1.008 1.685-1.4.26-.422 1.693-.227 2.67-.357.976-.13.91.618 1.878.846.968.228 1.149-1.986 1.605-2.409.455-.423 3.776 1.335 4.524 1.888l.263-.325.128-.781c-.977-.684-4.167-2.767-5.046-2.572z"/></g><g><path fill="#fff" d="M36.718 16.409c-1.182-.565-3.646-.39-4.688-2.344-1.041-1.953-1.761-3.125-2.343-3.125-1.107 0-3.841.52-5.469 2.344-1.324 1.482-1.042 2.864-3.125 3.906-.605.303-2.211.762-2.323 2.904.81-1.097 3.397-1.781 5.009-1.39 1.06.257.341 1.06 1.568 1.06.92 0 .846-3.916 1.508-4.527.634-.586 1.326-.432 1.757 1.172.684 2.539 4.98.635 10.515 1.723-.711-.935-1.783-1.424-2.41-1.723z"/></g><g><path fill="#fff" d="M.29 21.189h49.423c-.045-.296-.101-.587-.157-.879H.447c-.055.292-.112.584-.157.879z"/></g><g><path fill="#75c3f0" d="M32.228 28.405c0-1.858-1.432-2.223-1.432-.842 0 .797-1.136 1.528-1.845.518-.58-.823-.76-3.214-.76-4.313 0-2.181-1.772-2.296-1.772-.066 0 3.256-1.422 2.688-1.422 3.972 0 2.41 1.274 4.46.004 6.022-.02.024-.033.056-.051.082.976 3.907 2.058 9.196 3.176 9.196 1.693 0 3.646-6.38 4.688-7.032.428-.267 1.03-.447 1.593-.78-1.788-.196-2.179-3.223-2.179-6.757z"/></g><g><path fill="#5ab0e2" d="M18.112 29.537c0-2.458.147-3.89-.83-4.313-.866-.376-1.83.822-2.085-.228-.467-1.93-.486-2.586-1.112-2.586-.611 0-.856.967-.856 3.367 0 3.62.375 4.19-.579 4.604.785 3.18 2.241 3.725 2.972 5.552.406 1.014 2.49.391 3.125 0 .6-.37 1.448-3.401 1.942-5.36-.445 1.063-2.577 1.132-2.577-1.036z"/></g></g></g></svg>