<svg xmlns="http://www.w3.org/2000/svg" width="18" height="17" viewBox="0 0 18 17"><g><g opacity=".8"><path fill="#fff" d="M11.704 4.18a.696.696 0 0 0-.624.558.716.716 0 0 0 .343.775c1.068.68 1.73 1.762 1.73 2.979 0 1.225-.673 2.32-1.752 3a.72.72 0 0 0 .017 1.268c.232.12.51.092.719-.067 1.433-.903 2.401-2.44 2.401-4.201 0-1.75-.96-3.296-2.38-4.202a.692.692 0 0 0-.389-.11h-.065zm1.645-2.757a.703.703 0 0 0-.571.62.716.716 0 0 0 .42.736c2.033 1.053 3.417 3.206 3.417 5.713 0 2.506-1.384 4.66-3.418 5.713a.707.707 0 0 0-.462.595.718.718 0 0 0 .327.686.682.682 0 0 0 .74-.014c2.486-1.29 4.198-3.93 4.198-6.98 0-3.051-1.712-5.691-4.197-6.98a.663.663 0 0 0-.39-.09h-.064zM8.329 0c-.221.003-.468.103-.692.333l-3.96 4.602H.693A.703.703 0 0 0 0 5.646v5.691c0 .392.311.712.692.712h2.986l3.937 4.579c.693.711 1.385.347 1.385-.623V.867c0-.564-.3-.87-.67-.867z"/></g></g></svg>