<?xml version="1.0" encoding="utf-8"?><svg xmlns="http://www.w3.org/2000/svg" xmlns:xlink="http://www.w3.org/1999/xlink"><symbol viewBox="0 0 512 512" id="facebook" xmlns="http://www.w3.org/2000/svg"><path d="M75 512h167V330h-60v-60h60v-75c0-41.355 33.645-75 75-75h75v60h-60c-16.543 0-30 13.457-30 30v60h87.293l-10 60H302v182h135c41.355 0 75-33.645 75-75V75c0-41.355-33.645-75-75-75H75C33.645 0 0 33.645 0 75v362c0 41.355 33.645 75 75 75zM30 75c0-24.813 20.188-45 45-45h362c24.813 0 45 20.188 45 45v362c0 24.813-20.188 45-45 45H332V360h72.707l20-120H332v-30h90V90H317c-57.898 0-105 47.102-105 105v45h-60v120h60v122H75c-24.813 0-45-20.188-45-45zm0 0"/></symbol><symbol viewBox="0 0 93 80" id="footer-pic" xmlns="http://www.w3.org/2000/svg"><path d="M92.76 69.424a.827.827 0 0 1-.152.86c-.145.164-2.92 3.124-11.68 2.64-.01 0-.022.004-.032.004-.032 0-.064-.009-.096-.013-2.282-.134-4.96-.497-8.105-1.205l2.734 7.08a.83.83 0 0 1-.775 1.13h-3.976c-1.969 0-3.737-.492-5.295-1.465-.21.002-.45.002-.71.002a447.5 447.5 0 0 1-3.125-.012c-2.177 0-4.144-.619-5.838-1.838l-.528-.4c-8.524 1.078-15.163.854-19.79.32l.368.952a.829.829 0 0 1-.774 1.13h-.033c-.854-.035-3.054-.123-4.54-.21l.15.391a.832.832 0 0 1-.774 1.13h-3.976c-4.693 0-8.333-2.878-10.525-8.32-1.25-3.107-1.687-6.173-1.823-7.448a25.459 25.459 0 0 1-1.089-.299c-5.873-1.789-9.454-5.304-9.603-5.452a.828.828 0 0 1-.22-.787 36.41 36.41 0 0 1 3.278-8.55 42.584 42.584 0 0 0-3.748 3.647.83.83 0 0 1-1.414-.78c1.798-6.525 5.453-12.449 10.472-17.08a35.555 35.555 0 0 0-4.57 2.403.83.83 0 0 1-1.117-1.183c2.676-3.805 6.17-7.133 10.133-9.666-1.54-3.339-1.992-6.293-1.339-8.793.624-2.385 2.281-4.353 4.792-5.689 2.093-1.114 3.918-1.395 5.121-1.428a13.89 13.89 0 0 1-.985-2.993c-.81.378-2.312.952-3.97.952a6.328 6.328 0 0 1-1.847-.264c-3.089-.944-4.71-4.293-4.779-4.436a.83.83 0 0 1 .328-1.07c.135-.08 3.352-1.953 6.44-1.01 1.63.498 2.852 1.666 3.652 2.68a9.381 9.381 0 0 1 1.054-3.5.83.83 0 1 1 1.467.776c-1.48 2.794-.925 5.702.074 7.996.72-.962 1.946-2.226 3.918-3.276 2.511-1.336 5.068-1.612 7.396-.795 2.56.896 4.851 3.082 6.825 6.496a29.63 29.63 0 0 1 5.846 1.267 24.57 24.57 0 0 0-2.787-1.605.83.83 0 0 1 .235-1.565 31.587 31.587 0 0 1 4.961-.394c7.827 0 15.05 2.912 20.404 8.114a27.897 27.897 0 0 0-2.613-4.487.83.83 0 0 1 1.116-1.187c6.481 4.046 11.911 9.752 15.703 16.502a46.55 46.55 0 0 1 5.95 22.752.831.831 0 0 1-1.502.491c-.357-.489-1.1-1.303-2.443-1.992.562 3.893 2.233 14.673 4.155 19.477zM17.843 6.601c1.623.497 3.397-.072 4.37-.49-.574-.888-1.727-2.351-3.35-2.847-1.624-.496-3.398.073-4.37.49.573.889 1.726 2.352 3.35 2.848zm-1.988 11.431c-.632 2.42-.002 5.432 1.873 8.955 3.8 7.141 11.721 9.822 15.002 8.075 2.596-1.38 3.251-2.794 3.257-2.808a.845.845 0 0 1 .887-.494c.043.005 1.686.2 4.181-1.127 1.686-.896 3.022-3.38 3.488-6.48.528-3.51-.13-7.327-1.804-10.473-1.875-3.524-4.022-5.73-6.38-6.557-1.905-.668-3.946-.434-6.067.695-2.33 1.24-3.425 2.787-3.835 3.5a18.16 18.16 0 0 0 1.495 2.166 5.212 5.212 0 0 0 2.024-2.91.83.83 0 1 1 1.606.424 6.879 6.879 0 0 1-3.407 4.302 6.868 6.868 0 0 1-5.467.423.831.831 0 0 1 .545-1.569 5.226 5.226 0 0 0 3.168.074 19.43 19.43 0 0 1-1.386-2.046 6.429 6.429 0 0 0-.609-.028c-.967 0-2.645.192-4.606 1.236-2.12 1.128-3.455 2.69-3.965 4.642zm-2.929 44.251c7.326 2.206 14.663.482 21.806-5.125a.83.83 0 0 1 1.026 1.307c-5.217 4.095-10.124 5.814-14.387 6.26 5.292 4.142 11.154 6.248 17.454 6.248 9.896 0 18.27-7.167 25.66-13.49 6.267-5.366 12.188-10.432 18.198-10.432 4.098 0 6.65 1.201 8.156 2.353-.615-13.233-7.167-25.666-17.606-33.583a29.422 29.422 0 0 1 2.286 5.728.831.831 0 0 1-1.465.722C68.902 15.372 60.86 11.415 51.99 11.415c-.722 0-1.448.027-2.172.08a28.49 28.49 0 0 1 5.434 4.421.831.831 0 0 1-1.015 1.296 27.235 27.235 0 0 0-9.56-3.36A18.72 18.72 0 0 1 46.186 24.4c-.55 3.665-2.178 6.544-4.35 7.7-2.125 1.13-3.777 1.324-4.614 1.334-.453.688-1.5 1.92-3.71 3.096-.907.482-1.999.714-3.196.714-4.604 0-10.774-3.439-13.98-9.34a35.01 35.01 0 0 0-6.977 5.934 35.74 35.74 0 0 1 5.856-2.19.83.83 0 0 1 .7 1.478c-5.692 4.01-10.054 9.57-12.533 15.902 1.635-1.53 3.305-2.856 4.991-3.956a.831.831 0 0 1 1.135 1.17c-2.425 3.48-4.18 7.276-5.224 11.293.998.877 4.13 3.391 8.642 4.75zm16.826 14.41c.798.056 2.467.137 4.001.203l-.238-.617a43.799 43.799 0 0 1-4.245-.835zm31.801.09c.02 0 .851.007 1.797.01A13.23 13.23 0 0 1 62 75.126a114.02 114.02 0 0 1-4.334.739c1.164.607 2.47.92 3.89.92zM83.9 69.25c1.994-1.347 4.162-1.926 6.462-1.734-1.805-6.142-3.207-15.881-3.535-18.265-1.113-.323-2.477-.537-4.143-.537-5.395 0-11.09 4.873-17.119 10.033-7.608 6.51-16.23 13.889-26.739 13.889-7.16 0-14.046-2.694-19.924-7.79a22.664 22.664 0 0 1-3.718-.328c.185 1.4.634 3.965 1.66 6.496 1.945 4.809 4.963 7.247 8.97 7.247h2.764l-1.46-3.782a.83.83 0 0 1 1.054-1.081c.12.043 12.31 4.236 34.055-.008a.83.83 0 0 1 .86.37c1.896 2.986 4.45 4.5 7.591 4.5h2.765l-2.866-7.421a.83.83 0 0 1 .975-1.105c3.631.904 6.647 1.354 9.138 1.514zm-.153 2.052c4.327-.147 6.461-1.277 7.252-1.828-.026-.07-.052-.148-.078-.221-2.182-.348-4.234.115-6.102 1.382l-.027.018z"/></symbol><symbol viewBox="0 0 512.001 512.001" id="inst" xmlns="http://www.w3.org/2000/svg"><path d="M373.406 0H138.594C62.172 0 0 62.172 0 138.594V373.41C0 449.828 62.172 512 138.594 512H373.41C449.828 512 512 449.828 512 373.41V138.594C512 62.172 449.828 0 373.406 0zm108.578 373.41c0 59.867-48.707 108.574-108.578 108.574H138.594c-59.871 0-108.578-48.707-108.578-108.574V138.594c0-59.871 48.707-108.578 108.578-108.578H373.41c59.867 0 108.574 48.707 108.574 108.578zm0 0"/><path d="M256 116.004c-77.195 0-139.996 62.8-139.996 139.996S178.804 395.996 256 395.996 395.996 333.196 395.996 256 333.196 116.004 256 116.004zm0 249.976c-60.64 0-109.98-49.335-109.98-109.98 0-60.64 49.34-109.98 109.98-109.98 60.645 0 109.98 49.34 109.98 109.98 0 60.645-49.335 109.98-109.98 109.98zM399.344 66.285c-22.813 0-41.367 18.559-41.367 41.367 0 22.813 18.554 41.371 41.367 41.371s41.37-18.558 41.37-41.37-18.558-41.368-41.37-41.368zm0 52.719c-6.258 0-11.352-5.094-11.352-11.352 0-6.261 5.094-11.351 11.352-11.351 6.261 0 11.355 5.09 11.355 11.351 0 6.258-5.094 11.352-11.355 11.352zm0 0"/></symbol><symbol viewBox="0 0 22 39" id="left" xmlns="http://www.w3.org/2000/svg"><path d="M20.732 37.728L2.2 19.197 20.732.665"/></symbol><symbol viewBox="0 0 180 185" id="logo" xmlns="http://www.w3.org/2000/svg"><path d="M140.63 88.11c-.311 0-.62-.14-.825-.405a35.575 35.575 0 0 0-8.496-7.87 37.662 37.662 0 0 0-2.327-1.425 35.87 35.87 0 0 1 2.615 8.398 1.044 1.044 0 0 1-2.051.378c-.714-3.88-2.02-7.462-3.88-10.647A1.044 1.044 0 0 1 127 75.064a39.616 39.616 0 0 1 5.463 3.032 37.65 37.65 0 0 1 8.992 8.333 1.042 1.042 0 0 1-.824 1.681zm-35.111-9.468c-.31 0-.616-.138-.822-.4-2.431-3.107-5.25-5.675-8.374-7.634a1.042 1.042 0 0 1 .497-1.925 39.72 39.72 0 0 1 6.246.152 37.664 37.664 0 0 1 11.832 3.213 1.044 1.044 0 0 1-.87 1.896 35.546 35.546 0 0 0-11.177-3.033 37.411 37.411 0 0 0-2.723-.184c2.267 1.762 4.348 3.848 6.212 6.229a1.042 1.042 0 0 1-.821 1.686zM94.12 99.777c-.263 0-.526-.099-.73-.297-2.82-2.757-5.954-4.929-9.312-6.456a1.043 1.043 0 0 1 .237-1.975 39.77 39.77 0 0 1 6.212-.676c4.165-.12 8.256.421 12.153 1.615a1.044 1.044 0 0 1-.611 1.995 35.454 35.454 0 0 0-11.48-1.524c-.907.026-1.817.086-2.723.18 2.48 1.444 4.82 3.236 6.983 5.35a1.044 1.044 0 0 1-.73 1.788zm-43.206 9.588a1.044 1.044 0 0 1-.83-1.676 39.67 39.67 0 0 1 4.172-4.652 37.651 37.651 0 0 1 10.123-6.915 1.044 1.044 0 0 1 .878 1.893 35.576 35.576 0 0 0-9.563 6.533 37.758 37.758 0 0 0-1.906 1.952c2.812-.58 5.749-.809 8.77-.682a1.044 1.044 0 0 1-.09 2.085c-3.94-.166-7.722.308-11.242 1.414a1.051 1.051 0 0 1-.312.048zm74.281 1.641a3.224 3.224 0 0 1 3.221-3.22 3.224 3.224 0 0 1 3.221 3.22 3.224 3.224 0 0 1-3.221 3.22 3.224 3.224 0 0 1-3.221-3.22zm2.086 0c0 .627.509 1.136 1.135 1.136a1.136 1.136 0 0 0 0-2.271c-.626 0-1.135.509-1.135 1.135zm18.743.564a3.208 3.208 0 0 1-1.854-.587 1.042 1.042 0 1 1 1.2-1.706 1.137 1.137 0 0 0 1.788-.929 1.136 1.136 0 0 0-2.132-.542 1.043 1.043 0 1 1-1.831-.999 3.221 3.221 0 1 1 2.829 4.762zm19.914 5.52l13.348 5.435-1.697 4.166c-.639 1.572-1.436 2.6-2.367 3.057a3.35 3.35 0 0 1-1.489.346c-.517 0-1.058-.114-1.618-.342-.649-.264-1.169-.657-1.546-1.168-.309-.42-.507-.925-.591-1.51-.523.49-1.091.797-1.692.913-.706.136-1.457.045-2.23-.27-1.222-.496-2.025-1.25-2.388-2.24-.36-.981-.218-2.277.422-3.85zm.863 2.268l-1.178 2.894c-.424 1.04-.533 1.866-.324 2.452.206.579.691 1.027 1.441 1.332.751.306 1.411.324 1.962.054.559-.274 1.058-.941 1.481-1.982l1.178-2.893zm6.094 2.48l-1.027 2.523c-.425 1.042-.54 1.866-.342 2.448.197.579.613.992 1.273 1.26.66.269 1.246.266 1.792-.012.549-.28 1.041-.95 1.466-1.99l1.026-2.522zm-2.745 12.189c-.548-.683-1.272-1.304-2.151-1.844l-1.094-.674c-.891-.549-1.777-.92-2.633-1.102-.86-.185-1.682-.203-2.442-.057a5.32 5.32 0 0 0-2.103.9 6.003 6.003 0 0 0-1.625 1.77 5.912 5.912 0 0 0-.791 1.956 5.29 5.29 0 0 0-.034 1.92c.106.617.323 1.206.643 1.752.318.543.73 1.037 1.222 1.47l.165.144.99-1.609-.102-.104a4.688 4.688 0 0 1-.767-1.016 3.466 3.466 0 0 1-.385-2.374 3.73 3.73 0 0 1 .503-1.25 4 4 0 0 1 1.12-1.202 3.6 3.6 0 0 1 1.488-.596c.55-.088 1.152-.06 1.787.082.639.143 1.316.434 2.012.862l1.094.673c.697.43 1.266.903 1.69 1.408.422.5.718 1.02.88 1.547a3.62 3.62 0 0 1 .13 1.592 4.046 4.046 0 0 1-.578 1.56c-.26.422-.561.771-.895 1.035a3.83 3.83 0 0 1-1.053.598 3.31 3.31 0 0 1-1.097.206 3.956 3.956 0 0 1-1.061-.124l-.133-.034-.99 1.608.213.078c.518.19 1.077.29 1.66.302l.094.001a5.15 5.15 0 0 0 1.649-.272 5.572 5.572 0 0 0 1.66-.914 6.023 6.023 0 0 0 1.397-1.596 6.034 6.034 0 0 0 .849-2.247 5.293 5.293 0 0 0-.152-2.29c-.218-.748-.608-1.474-1.16-2.159zm-17.457 6.944l4.954 4.33-1.281 1.465-8.162-.659-1.44 1.65 9.26.688 1.858 8.49 1.413-1.616-1.67-7.479 1.269-1.45 4.652 4.064 1.168-1.337-10.853-9.483zm-9.108 9.505l1.776 12.083.29 1.693-7.542-9.368-1.367 1.1 9.037 11.227 1.728-1.39-1.776-12.084-.29-1.66 7.525 9.348 1.384-1.113-9.037-11.227zm-17.123 11.474l.815 1.44 6.11-3.458 2.425 4.286-5.062 2.864.815 1.441 5.063-2.865 2.227 3.937-6.11 3.457.815 1.44 7.655-4.332-7.097-12.543zm-9.492 3.787l1.855 6.312-1.868.549-6.531-4.938-2.101.618 7.443 5.554-2.993 8.159 2.06-.605 2.608-7.205 1.849-.543 1.74 5.927 1.705-.5-4.063-13.828zm-8.11 10.418c.128 1.026.094 1.977-.102 2.826-.196.852-.526 1.608-.98 2.246a5.452 5.452 0 0 1-1.718 1.566 6.104 6.104 0 0 1-2.323.76 6.707 6.707 0 0 1-.853.055 5.94 5.94 0 0 1-1.583-.21 5.437 5.437 0 0 1-2.061-1.08c-.603-.506-1.11-1.161-1.505-1.948-.394-.782-.66-1.698-.787-2.724l-.16-1.273c-.128-1.025-.093-1.977.102-2.827.197-.851.527-1.607.98-2.246a5.437 5.437 0 0 1 1.719-1.565 6.088 6.088 0 0 1 2.322-.761 6.218 6.218 0 0 1 2.436.154c.762.21 1.455.574 2.06 1.08.605.508 1.11 1.16 1.506 1.939.392.775.657 1.695.787 2.734zm-1.852 2.405c.133-.648.15-1.381.05-2.18l-.16-1.273c-.1-.8-.3-1.501-.593-2.087-.294-.585-.655-1.07-1.075-1.442a3.73 3.73 0 0 0-1.428-.794 4.116 4.116 0 0 0-1.68-.128 4.245 4.245 0 0 0-1.618.532 3.615 3.615 0 0 0-1.19 1.11c-.314.466-.541 1.027-.674 1.669-.133.647-.15 1.38-.05 2.179l.16 1.274c.098.785.297 1.484.592 2.078.295.59.657 1.08 1.076 1.452.417.369.898.636 1.429.793a4.12 4.12 0 0 0 1.68.129 4.25 4.25 0 0 0 1.618-.532 3.649 3.649 0 0 0 1.189-1.111c.314-.463.54-1.025.674-1.67zm-15.683-2.195l-7.44-.423.374-6.569-1.772-.101-.82 14.389 1.773.101.352-6.168 7.439.423-.351 6.169 1.773.1.818-14.389-1.772-.1zm-13.358-6.245a5.344 5.344 0 0 0-1.515-1.716 6.055 6.055 0 0 0-2.19-.987 5.98 5.98 0 0 0-2.107-.136 5.279 5.279 0 0 0-1.834.57 5.232 5.232 0 0 0-1.46 1.161 6.04 6.04 0 0 0-1.012 1.622l-.086.202 1.84.436.066-.13c.198-.389.442-.74.724-1.048a3.452 3.452 0 0 1 2.133-1.11 3.682 3.682 0 0 1 1.345.083c.558.132 1.06.364 1.492.688.43.322.777.734 1.033 1.224.257.495.42 1.074.484 1.722.064.652.002 1.386-.187 2.182l-.295 1.25c-.189.796-.46 1.485-.806 2.047-.34.557-.743 1.002-1.192 1.322a3.641 3.641 0 0 1-1.472.622 4.037 4.037 0 0 1-1.66-.059 3.92 3.92 0 0 1-1.265-.525 3.81 3.81 0 0 1-.899-.81 3.337 3.337 0 0 1-.54-.978 4.094 4.094 0 0 1-.215-1.046l-.009-.137-1.839-.435-.007.228a5.138 5.138 0 0 0 .236 1.67 5.16 5.16 0 0 0 .804 1.57c.36.48.827.914 1.39 1.29.563.373 1.22.65 1.952.823.497.118.988.177 1.467.177.317 0 .63-.025.934-.078a5.274 5.274 0 0 0 2.127-.863c.641-.44 1.208-1.04 1.685-1.778.476-.735.837-1.617 1.075-2.622l.296-1.249c.241-1.02.315-1.977.22-2.847-.096-.875-.336-1.66-.713-2.336zm-19.47-8.033l-.627 1.532 6.497 2.66-1.866 4.556-5.383-2.204-.628 1.532 5.384 2.204-1.714 4.186-6.497-2.66-.627 1.531 8.14 3.333 5.46-13.337zm-2.123-1.092l-7.372 12.384-3.952-2.352c-1.516-.903-2.448-1.92-2.769-3.026-.322-1.109-.113-2.298.622-3.534.722-1.213 1.67-1.954 2.817-2.204 1.141-.249 2.478.075 3.973.965l2.426 1.443 2.729-4.585zm-8.051 10.054l2.949-4.955-2.426-1.444c-.824-.49-1.554-.738-2.175-.738a2.11 2.11 0 0 0-.427.042c-.699.146-1.298.631-1.781 1.443-.483.811-.627 1.567-.426 2.248.201.686.827 1.345 1.86 1.96zm-2.17-16.416l-9.223 11.075-3.457-2.878c-1.304-1.085-2.043-2.156-2.196-3.182-.154-1.034.162-2.03.938-2.963.447-.538.98-.914 1.581-1.119.492-.168 1.034-.203 1.617-.107-.308-.647-.428-1.28-.357-1.888.084-.715.398-1.403.932-2.044.844-1.014 1.805-1.552 2.858-1.597 1.048-.048 2.237.482 3.541 1.568zm-8.77-1.944c-.518.622-.735 1.245-.645 1.853.091.616.576 1.293 1.44 2.012l2.4 2 3.151-3.785-2.4-1.999c-.839-.699-1.574-1.052-2.185-1.052l-.055.001c-.614.021-1.188.347-1.706.97zm-.758 10.611l2.894-3.475-2.092-1.743c-.85-.708-1.59-1.066-2.199-1.066h-.03c-.613.011-1.132.283-1.588.831-.456.547-.629 1.107-.53 1.712.1.607.588 1.28 1.453 2zm.182-16.56L25.7 155.924l-1.131-1.368 4.11-3.4-1.733-2.098c-1.11-1.34-1.635-2.611-1.564-3.78.072-1.171.659-2.221 1.747-3.12 1.108-.916 2.25-1.303 3.396-1.157 1.14.147 2.29.912 3.415 2.273zm-6.851 3.362l4.444-3.676-1.736-2.098c-.766-.927-1.514-1.444-2.222-1.537a2.03 2.03 0 0 0-.281-.02c-.614 0-1.244.264-1.875.787-.728.6-1.115 1.267-1.152 1.98-.038.718.329 1.548 1.087 2.465zm-1.695-13.696l-11.107 9.185 1.131 1.368 11.107-9.185zm-9.394-7.678a1.27 1.27 0 0 0-.977.092 1.268 1.268 0 0 0-.56 1.735c.17.33.424.55.757.652.127.039.254.058.38.058a1.3 1.3 0 0 0 .597-.15 1.26 1.26 0 0 0 .646-.738c.113-.33.084-.665-.085-.996a1.244 1.244 0 0 0-.758-.653zm-1.162-15.878c.232.832.301 1.65.206 2.433a5.424 5.424 0 0 1-.765 2.196c-.413.674-.983 1.27-1.695 1.776-.71.502-1.58.9-2.588 1.182l-1.236.345c-.8.223-1.567.336-2.289.336-.177 0-.35-.007-.522-.021-.872-.068-1.668-.282-2.367-.636a5.474 5.474 0 0 1-1.8-1.47 6.107 6.107 0 0 1-1.096-2.185 6.226 6.226 0 0 1-.206-2.432 5.443 5.443 0 0 1 .765-2.198c.412-.671.985-1.27 1.705-1.776.718-.506 1.585-.903 2.578-1.18l1.236-.345c.996-.28 1.94-.386 2.812-.316.872.069 1.668.283 2.366.637.7.355 1.305.85 1.801 1.469.494.62.862 1.354 1.095 2.185zm-1.512 2.137a4.081 4.081 0 0 0-.12-1.68 4.252 4.252 0 0 0-.766-1.524 3.643 3.643 0 0 0-1.274-1.011c-.504-.244-1.093-.385-1.75-.42a4.52 4.52 0 0 0-.287-.009c-.582 0-1.212.095-1.876.28l-1.236.344c-.762.214-1.424.515-1.967.895-.54.377-.97.807-1.277 1.278a3.75 3.75 0 0 0-.575 1.53 4.088 4.088 0 0 0 .121 1.679c.162.578.42 1.09.764 1.523.345.43.773.77 1.275 1.012.505.243 1.093.385 1.75.42.662.036 1.39-.054 2.163-.271l1.236-.345c.775-.217 1.44-.518 1.976-.895.535-.376.962-.806 1.268-1.276a3.74 3.74 0 0 0 .575-1.53zm-7.216-10.838c-.84.028-1.88.103-3.09.22l-4.777.464-.87-8.954 12.698-1.233-.145-1.497 4.642-.451.17 1.767-2.993.291.943 9.712 2.994-.291.172 1.768-4.642.45-.131-1.346a6.858 6.858 0 0 0-1.24-.541 7.721 7.721 0 0 0-1.574-.31 16.726 16.726 0 0 0-2.157-.049zm-3.262-1.547a61.16 61.16 0 0 1 2.88-.219c.437-.021.85-.032 1.239-.032.358 0 .695.009 1.007.028.658.038 1.253.118 1.767.238.405.095.787.22 1.14.374l-.638-6.578-11.05 1.073.526 5.42zM1.92 89.076a5.456 5.456 0 0 1-1.18-2 6.13 6.13 0 0 1-.27-2.43c.07-.86.29-1.652.65-2.354a5.45 5.45 0 0 1 1.48-1.796c.62-.487 1.364-.849 2.215-1.075.847-.225 1.8-.297 2.826-.213l1.28.105c1.03.084 1.953.312 2.746.678.793.367 1.466.845 1.998 1.42.534.576.931 1.25 1.181 2.001.25.752.34 1.57.268 2.43a6.215 6.215 0 0 1-.649 2.353 5.434 5.434 0 0 1-1.48 1.796c-.62.487-1.362.85-2.205 1.076a7.713 7.713 0 0 1-2.003.246c-.27 0-.549-.01-.834-.035l-1.279-.104c-1.032-.085-1.956-.313-2.746-.679-.794-.366-1.466-.844-1.999-1.419zm.24-4.293a4.25 4.25 0 0 0 .19 1.693c.172.523.456.991.843 1.391.39.402.892.74 1.495 1.001.608.264 1.323.431 2.123.496l1.28.105c.802.064 1.531.013 2.164-.155.633-.167 1.181-.422 1.631-.757a3.742 3.742 0 0 0 1.07-1.235 4.104 4.104 0 0 0 .47-1.619 4.245 4.245 0 0 0-.19-1.692 3.622 3.622 0 0 0-.844-1.39c-.39-.404-.893-.74-1.496-1.003-.606-.263-1.32-.43-2.123-.496l-1.28-.105a8.149 8.149 0 0 0-.636-.026c-.545 0-1.053.061-1.518.182-.639.168-1.19.422-1.64.756a3.744 3.744 0 0 0-1.07 1.236 4.092 4.092 0 0 0-.469 1.618zm15.995-15.968l-1.606-.398-1.69 6.814-4.78-1.186L11.48 68.4l-1.607-.398-1.4 5.646-4.39-1.089 1.69-6.814-1.606-.398-2.118 8.537 13.99 3.47zm.76-2.255L5.607 61.028l1.727-4.153c.65-1.568 1.455-2.59 2.389-3.04.942-.453 1.987-.447 3.108.02.646.267 1.163.664 1.537 1.178.306.421.5.93.58 1.513.527-.486 1.097-.789 1.698-.9.708-.13 1.458-.035 2.229.285 1.217.507 2.015 1.266 2.37 2.258.354.984.203 2.278-.45 3.847zm-.847-2.275l1.199-2.885c.432-1.038.547-1.862.342-2.449-.202-.58-.683-1.032-1.431-1.343-.748-.31-1.408-.334-1.962-.067-.561.268-1.064.931-1.495 1.97l-1.2 2.885zm-6.075-2.525l1.045-2.514c.432-1.039.553-1.862.36-2.445-.193-.582-.606-.997-1.264-1.27-.657-.274-1.244-.274-1.793 0-.55.274-1.047.94-1.48 1.98l-1.044 2.513zm2.833-12.169c.544.687 1.263 1.312 2.14 1.86l1.087.682c.886.555 1.77.932 2.625 1.121.495.109.977.165 1.442.165a5.342 5.342 0 0 0 3.11-.975 6.017 6.017 0 0 0 1.638-1.757c.4-.639.671-1.295.805-1.951.134-.655.15-1.301.048-1.92a5.204 5.204 0 0 0-.63-1.756 6.017 6.017 0 0 0-1.21-1.479l-.165-.146-1.004 1.603.102.104c.304.311.56.655.761 1.022.198.364.331.749.395 1.147s.054.811-.028 1.23a3.725 3.725 0 0 1-.51 1.246A4 4 0 0 1 24.3 50.98a3.582 3.582 0 0 1-1.492.585c-.549.086-1.15.053-1.785-.094-.637-.149-1.313-.444-2.007-.878l-1.087-.681c-.694-.433-1.259-.911-1.682-1.419-.419-.505-.71-1.027-.868-1.554a3.638 3.638 0 0 1-.118-1.594 4.04 4.04 0 0 1 .59-1.554c.264-.422.567-.768.902-1.029.336-.261.691-.46 1.057-.59a3.34 3.34 0 0 1 1.1-.198 4.11 4.11 0 0 1 1.06.132l.131.035 1.002-1.602-.213-.079a5.137 5.137 0 0 0-1.657-.314 5.118 5.118 0 0 0-1.745.257 5.593 5.593 0 0 0-1.667.903 6.029 6.029 0 0 0-1.408 1.585 6.005 6.005 0 0 0-.864 2.242 5.265 5.265 0 0 0 .134 2.291c.213.749.597 1.478 1.143 2.167zm17.507-6.814l-4.922-4.365 1.292-1.457 8.156.719 1.453-1.64-9.256-.756-1.795-8.503-1.425 1.606 1.615 7.49-1.279 1.443-4.622-4.1-1.178 1.329 10.783 9.563zm9.178-9.439l-1.687-12.096-.277-1.695 7.471 9.423 1.376-1.09-8.955-11.292-1.737 1.377 1.686 12.096.28 1.663-7.458-9.404-1.39 1.103 8.953 11.293zm17.206-11.347l-.805-1.446-6.135 3.413-2.393-4.303 5.083-2.828-.805-1.446-5.084 2.827-2.198-3.952 6.135-3.413-.804-1.447-7.687 4.276 7.006 12.595zm9.521-3.719l-1.81-6.326 1.874-.535 6.495 4.986 2.105-.602-7.402-5.61 3.052-8.136-2.064.59-2.661 7.186-1.853.53-1.697-5.94-1.707.487 3.96 13.858zm15.083-3.128a6.719 6.719 0 0 1-.807.049 5.975 5.975 0 0 1-1.628-.22 5.429 5.429 0 0 1-2.052-1.097c-.6-.51-1.1-1.165-1.49-1.949-.388-.778-.646-1.7-.769-2.739l-.149-1.275c-.12-1.026-.08-1.976.122-2.826.203-.85.538-1.603.997-2.239a5.434 5.434 0 0 1 1.73-1.552 6.123 6.123 0 0 1 2.328-.744 6.228 6.228 0 0 1 2.435.172c.76.216 1.451.585 2.052 1.097.601.511 1.102 1.17 1.492 1.959.388.786.646 1.704.766 2.729l.151 1.275c.12 1.027.08 1.978-.124 2.826-.203.852-.538 1.605-.995 2.239a5.448 5.448 0 0 1-1.73 1.552 6.1 6.1 0 0 1-2.329.743zm-1.877-1.823a4.112 4.112 0 0 0 1.68.14 4.261 4.261 0 0 0 1.622-.519 3.644 3.644 0 0 0 1.196-1.103c.318-.461.55-1.021.687-1.664.138-.646.16-1.379.066-2.178l-.15-1.276c-.092-.785-.287-1.485-.578-2.081-.29-.593-.648-1.085-1.065-1.459a3.736 3.736 0 0 0-1.422-.805 4.021 4.021 0 0 0-1.166-.17c-.169 0-.34.01-.513.03a4.245 4.245 0 0 0-1.623.52c-.478.273-.88.644-1.196 1.102-.318.46-.549 1.02-.687 1.663-.138.647-.16 1.381-.066 2.179l.15 1.275c.094.8.29 1.503.58 2.092.287.587.645 1.074 1.062 1.449.415.373.894.644 1.423.805zm19.529 1.554l1.772.114.924-14.383-1.772-.113-.396 6.165-7.436-.478.397-6.165L92.69-.1l-.924 14.383 1.772.113.422-6.565 7.436.478zm6.299-.7a5.347 5.347 0 0 0 1.503 1.726 6.04 6.04 0 0 0 2.184 1.003 6.26 6.26 0 0 0 1.489.187c.209 0 .414-.012.616-.036a5.26 5.26 0 0 0 1.837-.557 5.21 5.21 0 0 0 1.47-1.15 6.023 6.023 0 0 0 1.023-1.614l.087-.202-1.836-.449-.067.13a4.71 4.71 0 0 1-.732 1.043 3.467 3.467 0 0 1-2.141 1.095 3.71 3.71 0 0 1-1.344-.093 3.993 3.993 0 0 1-1.487-.7 3.568 3.568 0 0 1-1.024-1.231c-.253-.495-.412-1.076-.472-1.725-.06-.652.009-1.385.203-2.18l.305-1.247c.195-.797.47-1.484.82-2.043.346-.555.751-.996 1.202-1.312.448-.314.945-.52 1.476-.612a4.044 4.044 0 0 1 1.661.07c.482.119.906.298 1.26.535.354.236.654.51.893.819a3.3 3.3 0 0 1 .532.98c.118.35.188.703.209 1.047l.007.138 1.836.448.008-.228a5.109 5.109 0 0 0-.223-1.672 5.175 5.175 0 0 0-.792-1.575 5.586 5.586 0 0 0-1.38-1.3 6.012 6.012 0 0 0-1.947-.837 6.001 6.001 0 0 0-2.4-.118 5.263 5.263 0 0 0-2.133.848c-.644.436-1.216 1.03-1.699 1.765-.481.732-.849 1.612-1.094 2.615l-.305 1.247c-.249 1.017-.329 1.974-.24 2.845.089.876.323 1.663.695 2.34zm19.411 8.174l.638-1.527-6.477-2.707 1.898-4.543 5.367 2.243.638-1.527-5.366-2.243 1.743-4.174 6.478 2.708.64-1.527-8.118-3.392-5.557 13.297zm2.11 1.105l7.46-12.331 3.934 2.38c1.51.914 2.435 1.938 2.748 3.045.315 1.113.097 2.3-.647 3.53-.731 1.207-1.684 1.943-2.832 2.185-1.145.24-2.48-.094-3.967-.994l-2.415-1.461-2.763 4.565zm8.122-9.996l-2.985 4.933 2.416 1.462c1.017.616 1.892.855 2.598.714.699-.141 1.302-.622 1.79-1.43.489-.807.638-1.563.443-2.244-.196-.687-.817-1.351-1.846-1.974zm2.055 16.433l9.303-11.008 3.435 2.904c1.296 1.095 2.028 2.171 2.173 3.198.147 1.034-.176 2.029-.959 2.955-.45.535-.987.908-1.589 1.109-.495.163-1.038.194-1.618.094.303.649.42 1.284.343 1.89-.089.716-.408 1.401-.947 2.038-.85 1.007-1.817 1.538-2.869 1.576a3.748 3.748 0 0 1-.106.002c-1.019 0-2.17-.536-3.425-1.596zm8.754 2.008c.523-.619.745-1.241.66-1.848-.088-.617-.567-1.297-1.426-2.022l-2.386-2.017-3.178 3.76 2.386 2.017c.86.726 1.615 1.086 2.232 1.068.613-.017 1.19-.339 1.712-.958zm.836-10.606l-2.92 3.454 2.081 1.758c.86.726 1.602 1.097 2.22 1.083.613-.007 1.135-.275 1.595-.819.46-.544.637-1.103.542-1.709-.095-.607-.579-1.282-1.438-2.009zm8.168 26.957l11.174-9.102-1.12-1.377-11.176 9.103zm-8.468-10.397l11.174-9.102 1.12 1.376-4.136 3.37 1.72 2.111c1.099 1.348 1.615 2.623 1.535 3.79-.08 1.171-.674 2.216-1.77 3.108-.951.775-1.925 1.167-2.902 1.167-.167 0-.334-.012-.501-.035-1.14-.155-2.284-.928-3.4-2.298zm6.875-3.31l-4.47 3.641 1.719 2.113c.76.932 1.504 1.455 2.212 1.554.7.097 1.428-.155 2.16-.752.733-.596 1.125-1.26 1.166-1.972.043-.72-.317-1.552-1.068-2.474zm11.91 21.373a1.27 1.27 0 0 0 .65-.734c.116-.33.09-.665-.077-.997a1.264 1.264 0 0 0-1.73-.573 1.263 1.263 0 0 0-.652.734c-.115.328-.088.664.079.996.166.332.419.553.752.657.13.042.26.063.389.063.198 0 .396-.05.589-.146z"/><path d="M149.17 124.077a1.04 1.04 0 0 1-.189 1.08c-.183.206-3.667 3.922-14.667 3.313-.013 0-.026.005-.039.005-.041 0-.08-.01-.12-.015-2.866-.168-6.228-.624-10.178-1.513l3.434 8.889a1.045 1.045 0 0 1-.973 1.419h-4.993c-2.472 0-4.692-.618-6.649-1.838l-.893.002c-1.638 0-3.805-.015-3.922-.016-2.734 0-5.203-.776-7.331-2.308l-.663-.503c-10.702 1.355-19.039 1.074-24.848.4l.462 1.198a1.041 1.041 0 0 1-.973 1.419l-.041-.001a355.048 355.048 0 0 1-5.701-.264l.19.492a1.042 1.042 0 0 1-.973 1.419h-4.992c-5.893 0-10.463-3.613-13.215-10.448-1.571-3.9-2.118-7.75-2.289-9.351a28.332 28.332 0 0 1-1.367-.376c-7.376-2.245-11.871-6.66-12.059-6.845a1.045 1.045 0 0 1-.278-.988 45.72 45.72 0 0 1 4.118-10.736 53.721 53.721 0 0 0-4.706 4.58 1.042 1.042 0 0 1-1.775-.98c2.256-8.192 6.846-15.632 13.148-21.446a44.736 44.736 0 0 0-5.738 3.018 1.042 1.042 0 0 1-1.403-1.486c3.361-4.778 7.747-8.957 12.724-12.137-1.934-4.193-2.501-7.9-1.681-11.04.783-2.996 2.864-5.466 6.017-7.144 2.628-1.4 4.92-1.752 6.43-1.793-.575-1.271-.991-2.528-1.238-3.758-1.016.475-2.902 1.196-4.986 1.196a7.884 7.884 0 0 1-2.317-.333c-3.879-1.184-5.915-5.39-6-5.57a1.044 1.044 0 0 1 .411-1.344c.17-.1 4.209-2.451 8.087-1.267 2.047.626 3.58 2.092 4.585 3.364.151-1.54.591-3.014 1.323-4.396a1.043 1.043 0 1 1 1.843.977c-1.859 3.508-1.162 7.16.092 10.04.904-1.207 2.444-2.796 4.92-4.114 3.153-1.677 6.364-2.023 9.286-.998 3.213 1.126 6.092 3.87 8.571 8.157 2.53.29 4.983.82 7.34 1.59a30.905 30.905 0 0 0-3.5-2.014 1.044 1.044 0 0 1 .296-1.967 39.736 39.736 0 0 1 6.229-.493c9.827 0 18.896 3.656 25.62 10.189a34.948 34.948 0 0 0-3.281-5.635 1.041 1.041 0 0 1 .088-1.32c.341-.362.89-.434 1.313-.171 8.138 5.08 14.956 12.245 19.717 20.72a58.456 58.456 0 0 1 7.47 28.57 1.042 1.042 0 0 1-1.884.615c-.449-.613-1.384-1.635-3.068-2.5.705 4.888 2.804 18.424 5.216 24.456zM55.105 45.193c2.037.623 4.265-.091 5.486-.615-.72-1.116-2.168-2.953-4.207-3.576-2.037-.622-4.265.093-5.486.616.72 1.115 2.167 2.953 4.207 3.575zm-2.497 14.355c-.793 3.036-.002 6.819 2.353 11.244 4.771 8.966 14.717 12.332 18.837 10.138 3.259-1.734 4.082-3.51 4.09-3.527a1.06 1.06 0 0 1 1.113-.62c.054.006 2.117.252 5.25-1.415 2.116-1.126 3.794-4.244 4.38-8.137.662-4.406-.164-9.2-2.266-13.15-2.354-4.424-5.05-7.194-8.011-8.233-2.392-.838-4.955-.545-7.617.872-2.928 1.558-4.302 3.499-4.815 4.396a22.568 22.568 0 0 0 1.876 2.718 6.54 6.54 0 0 0 2.541-3.652 1.042 1.042 0 1 1 2.017.532 8.634 8.634 0 0 1-4.277 5.4 8.627 8.627 0 0 1-6.865.533 1.043 1.043 0 1 1 .684-1.97 6.545 6.545 0 0 0 3.978.093 24.638 24.638 0 0 1-1.741-2.568 7.576 7.576 0 0 0-.765-.036c-1.213 0-3.32.24-5.784 1.552-2.662 1.416-4.337 3.378-4.978 5.83zm-3.677 55.562c9.199 2.77 18.412.605 27.38-6.435a1.043 1.043 0 1 1 1.288 1.64c-6.55 5.142-12.711 7.302-18.065 7.86 6.646 5.203 14.006 7.846 21.917 7.846 12.425 0 22.94-9 32.217-16.94 7.872-6.735 15.306-13.098 22.853-13.098 5.145 0 8.35 1.509 10.24 2.956-.772-16.616-8.999-32.227-22.107-42.168a36.854 36.854 0 0 1 2.87 7.19 1.043 1.043 0 0 1-1.839.908c-6.47-8.662-16.569-13.63-27.706-13.63-.908 0-1.819.033-2.728.1 2.438 1.517 4.724 3.376 6.823 5.55a1.043 1.043 0 0 1-1.274 1.628c-3.685-2.14-7.716-3.554-12.006-4.22 1.895 4.12 2.572 8.772 1.899 13.244-.692 4.602-2.734 8.217-5.463 9.669-2.667 1.419-4.741 1.663-5.792 1.674-.569.865-1.884 2.41-4.66 3.888-1.137.605-2.508.897-4.011.897-5.782 0-13.529-4.318-17.555-11.73a43.937 43.937 0 0 0-8.76 7.453 45.096 45.096 0 0 1 7.353-2.752 1.044 1.044 0 0 1 .879 1.858c-7.147 5.034-12.624 12.016-15.737 19.967 2.053-1.923 4.15-3.586 6.267-4.968a1.044 1.044 0 0 1 1.426 1.47c-3.045 4.368-5.25 9.135-6.56 14.18 1.253 1.102 5.186 4.257 10.851 5.963zm21.128 18.092c1.002.072 3.097.174 5.024.256l-.3-.776c-2.307-.345-4.091-.732-5.33-1.047zm39.929.115c.024 0 1.069.008 2.257.012a16.795 16.795 0 0 1-1.698-2.096c-1.872.357-3.685.664-5.441.928 1.461.763 3.099 1.156 4.882 1.156zm28.059-9.462c2.504-1.691 5.226-2.418 8.114-2.178-2.267-7.711-4.028-19.94-4.439-22.933-1.397-.406-3.11-.675-5.201-.675-6.776 0-13.926 6.12-21.497 12.598-9.551 8.175-20.377 17.44-33.573 17.44-8.992 0-17.637-3.383-25.017-9.781a28.423 28.423 0 0 1-4.668-.413c.231 1.759.795 4.978 2.082 8.157 2.444 6.038 6.233 9.099 11.263 9.099h3.471l-1.834-4.748a1.044 1.044 0 1 1 1.325-1.358c.15.054 15.457 5.32 42.761-.01.421-.082.85.103 1.08.465 2.38 3.75 5.587 5.65 9.531 5.65h3.472l-3.6-9.318a1.044 1.044 0 0 1 1.225-1.387c4.56 1.135 8.347 1.7 11.475 1.9zm-.192 2.577c5.433-.184 8.112-1.603 9.106-2.294-.033-.09-.065-.186-.098-.278-2.74-.438-5.316.144-7.662 1.734l-.034.022z"/></symbol><symbol viewBox="0 0 33 30" id="phone" xmlns="http://www.w3.org/2000/svg"><path d="M31.096 4.558a6.501 6.501 0 0 1 1.109 7.716c-.89 1.189-2.154.938-2.83.805h-.133c-.395-.075-1.13-.31-1.844-.533-.565-.176-1.151-.362-1.413-.415-.96-.197-2.76-1.077-2.558-2.97a2.167 2.167 0 0 0-.532-1.752c-.683-.746-2.334-1.637-6.395-1.637-4.072 0-5.73.907-6.395 1.653a2.16 2.16 0 0 0-.533 1.748 2.617 2.617 0 0 1-2.063 2.984c-.26.053-.911.224-1.598.406-.874.217-1.775.458-2.17.532l-.133.027c-.316.067-.64.105-.964.11a2.2 2.2 0 0 1-1.854-.925 6.507 6.507 0 0 1 1.113-7.75C4.52 1.942 9.838.444 16.5.444c6.66 0 11.98 1.498 14.596 4.115zm.26 7.109c.486-.646 1.429-3.943-1-6.357-2.431-2.414-7.461-3.8-13.856-3.8S5.106 2.83 2.644 5.31c-2.462 2.477-1.471 5.75-1.002 6.357.469.607 1.002.549 1.775.389h.138c.357-.075 1.28-.32 2.094-.534a60.185 60.185 0 0 1 1.658-.42 1.567 1.567 0 0 0 1.199-1.817A3.235 3.235 0 0 1 9.305 6.7c1.189-1.321 3.614-1.993 7.195-1.993 3.576 0 5.99.682 7.178 2.025.633.7.93 1.642.815 2.58-.15 1.412 1.716 1.81 1.716 1.81.315.07.864.246 1.514.449.65.202 1.385.432 1.716.495h.144c.75.133 1.32.208 1.774-.4z"/><path d="M20.23 11.927a12.258 12.258 0 0 1 9.592 11.964v5.862H3.176v-5.862a12.259 12.259 0 0 1 9.593-11.964V8.97h1.066v2.771c.53-.07 1.064-.107 1.598-.107h2.132c.535 0 1.07.036 1.6.107v-2.77h1.065zm8.526 11.964c0-6.18-5.01-11.19-11.19-11.19h-2.133c-6.18 0-11.19 5.01-11.19 11.19v4.796h24.513z"/><path d="M16.5 15.899a4.795 4.795 0 1 1 0 9.59 4.795 4.795 0 1 1 0-9.59zm0 8.525a3.73 3.73 0 0 0 3.73-3.73 3.73 3.73 0 1 0-7.46 0 3.73 3.73 0 0 0 3.73 3.73z"/></symbol><symbol viewBox="0 0 50 50" id="phone-wiget" xmlns="http://www.w3.org/2000/svg"><path d="M8.007.007c-.344-.068-.756-.068-1.03.069C3.27 1.518.936 6.804.386 10.443-1.33 22.25 8.006 32.48 16.589 39.209c7.62 5.973 22.243 15.79 30.895 6.317 1.097-1.167 2.402-2.884 2.334-4.6-.207-2.884-2.884-4.943-4.944-6.523-1.58-1.167-4.874-4.393-6.933-4.325-1.855.069-3.022 1.992-4.19 3.158l-2.058 2.06c-.343.343-4.738-2.54-5.218-2.884-1.785-1.167-3.501-2.471-5.012-3.913a32.224 32.224 0 0 1-4.051-4.67c-.342-.48-3.158-4.667-2.884-5.01 0 0 2.404-2.61 3.09-3.64 1.442-2.195 2.54-3.912.893-6.521-.618-.962-1.373-1.716-2.197-2.541-1.442-1.373-2.883-2.814-4.532-3.981C10.89 1.449 9.38.213 8.007.006z"/></symbol><symbol viewBox="0 0 22 39" id="right" xmlns="http://www.w3.org/2000/svg"><path d="M1.592.664l18.53 18.532L1.593 37.727"/></symbol><symbol viewBox="0 0 24 24" id="vk" xmlns="http://www.w3.org/2000/svg"><path d="M12.145 19.5c3.472 0 2.234-2.198 2.502-2.83-.004-.472-.008-.926.008-1.202.22.062.739.325 1.811 1.367 1.655 1.67 2.078 2.665 3.415 2.665h2.461c.78 0 1.186-.323 1.389-.594.196-.262.388-.722.178-1.438-.549-1.724-3.751-4.701-3.95-5.015a2.84 2.84 0 0 1 .103-.175h-.002c.632-.835 3.044-4.449 3.399-5.895a.019.019 0 0 0 .002-.008c.192-.66.016-1.088-.166-1.33-.274-.362-.71-.545-1.299-.545h-2.461c-.824 0-1.449.415-1.765 1.172-.529 1.345-2.015 4.111-3.129 5.09a64.114 64.114 0 0 1 .007-3.233c.036-1.535.152-3.029-1.441-3.029H9.339c-.998 0-1.953 1.09-.919 2.384.904 1.134.325 1.766.52 4.912-.76-.815-2.112-3.016-3.068-5.829-.268-.761-.674-1.466-1.817-1.466H1.594C.596 4.501 0 5.045 0 5.956 0 8.002 4.529 19.5 12.145 19.5zM4.055 6.001c.217 0 .239 0 .4.457.979 2.883 3.175 7.149 4.779 7.149 1.205 0 1.205-1.235 1.205-1.7l-.001-3.702C10.372 6.98 9.926 6.37 9.633 6l3.508.004c.002.017-.02 4.095.01 5.083 0 1.403 1.114 2.207 2.853.447 1.835-2.071 3.104-5.167 3.155-5.293.075-.18.14-.241.376-.241h2.471l-.002.009c-.225 1.05-2.446 4.396-3.189 5.435l-.034.05c-.327.534-.593 1.124.045 1.954h.001c.058.07.209.234.429.462.684.706 3.03 3.12 3.238 4.08-.138.022-.288.006-2.613.011-.495 0-.882-.74-2.359-2.23-1.328-1.292-2.19-1.82-2.975-1.82-1.524 0-1.413 1.237-1.399 2.733.005 1.622-.005 1.109.006 1.211-.089.035-.344.105-1.009.105C5.8 18 1.668 7.929 1.509 6.004c.055-.005.812-.002 2.546-.003z"/></symbol></svg>