<svg xmlns="http://www.w3.org/2000/svg" width="31" height="32" viewBox="0 0 31 32"><g><g><path fill="#33363c" d="M28.158 32H3.157c-1.549 0-2.7-1.202-2.472-2.723L2.694 2.18A2.464 2.464 0 0 1 5.166 0h20.976c1.236 0 2.335.954 2.472 2.181l2.015 27.096C30.857 30.779 29.595 32 28.158 32zm1.099-2.586l-2.01-27.096c-.07-.542-.552-1.018-1.098-1.018H5.166v.065c-.553 0-1.028.405-1.1 1.019L2.057 29.407c-.13.823.514 1.228 1.1 1.228h25c.794 0 1.217-.62 1.1-1.22zm-6.868-24.85v6.63c0 3.676-3.018 6.674-6.725 6.674-3.708 0-6.726-2.991-6.726-6.674V4.578a.69.69 0 0 1 1.379 0v6.616c0 2.925 2.394 5.302 5.34 5.302 2.947 0 5.34-2.377 5.34-5.302V4.558c0-.379.306-.685.69-.685.383 0 .696.306.702.692z"/></g></g></svg>