<svg xmlns="http://www.w3.org/2000/svg" width="48" height="51" viewBox="0 0 48 51"><g><g><path fill="#666" d="M48 11.91v26.617a.73.73 0 0 1-.424.66l-23.25 10.96a.768.768 0 0 1-.652 0L.424 39.186a.73.73 0 0 1-.424-.66V11.91c0-.28.165-.537.424-.66L23.674.292a.769.769 0 0 1 .652 0l23.25 10.96c.26.122.424.378.424.66zM17.78 4.697l21.378 10.078a.752.752 0 0 1 .127.078l6.24-2.942L24 1.764zm-6.088 2.907l21.485 10.128 4.402-2.075L16.086 5.525zm22.278 11.38v7.671l4.112-1.938v-7.67zM46.5 38.068v-24.99l-6.918 3.261v8.838a.73.73 0 0 1-.424.66l-5.612 2.645a.77.77 0 0 1-.725-.04.729.729 0 0 1-.351-.62v-8.789l-.01-.013L9.926 8.4 2.475 11.91l16.24 7.655c.373.176.529.614.349.978a.752.752 0 0 1-.676.414.759.759 0 0 1-.326-.072L1.5 13.077v24.99l21.75 10.252V23.33l-1.982-.934a.725.725 0 0 1-.35-.977.758.758 0 0 1 1.002-.342l2.08.981 5.286-2.492a.759.759 0 0 1 1.001.34.725.725 0 0 1-.349.98L24.75 23.33v24.99zM8.04 36.204a.752.752 0 0 1-.676.415.754.754 0 0 1-.326-.074l-3.412-1.607a.726.726 0 0 1-.35-.98.758.758 0 0 1 1.003-.34l3.411 1.609c.373.175.53.613.35.977zm3.14-1.995a.752.752 0 0 1-1.002.34l-6.547-3.086a.725.725 0 0 1-.35-.977.758.758 0 0 1 1.002-.342l6.547 3.086c.373.176.53.614.35.979z"/></g></g></svg>