<svg xmlns="http://www.w3.org/2000/svg" width="50" height="41" viewBox="0 0 50 41"><g><g><path fill="#666" d="M25.825 27.612v-7.53c0-.502.333-.837.833-.837h13.33c.499 0 .832.335.832.837v7.53c0 .502-.333.837-.833.837H26.658c-.5 0-.833-.335-.833-.837zm1.666-.836h11.663v-5.858H27.491zM3.332 16.735c0-.503.334-.837.833-.837h6.665c.5 0 .833.334.833.837 0 .502-.333.836-.833.836H4.165c-.5 0-.833-.334-.833-.836zm9.997 0c0-.503.333-.837.833-.837h6.665c.5 0 .833.334.833.837 0 .502-.333.836-.833.836h-6.665c-.5 0-.833-.334-.833-.836zm-9.997 3.347c0-.502.334-.837.833-.837h10.83c.5 0 .833.335.833.837s-.333.836-.833.836H4.165c-.5 0-.833-.334-.833-.836zm18.328 0c0 .502-.334.836-.833.836h-2.5c-.5 0-.833-.334-.833-.836s.334-.837.833-.837h2.5c.5 0 .833.335.833.837zm28.324-8.786l-2.5 26.86C47.319 39.744 45.82 41 44.153 41h-.333L5.332 36.65a3.251 3.251 0 0 1-2.945-3.32A3.358 3.358 0 0 1 0 30.123V3.347C0 1.507 1.5 0 3.332 0h38.321c1.833 0 3.332 1.506 3.332 3.347v4.024l2 .243c.916.084 1.666.502 2.249 1.255.583.67.833 1.59.75 2.427zm-48.318-.418H43.32v-5.02H1.666zm0-7.531v.837H43.32v-.837c0-.92-.75-1.673-1.666-1.673H3.333c-.917 0-1.667.752-1.667 1.673zm1.666 28.449h38.321c.917 0 1.666-.753 1.666-1.674v-17.57H1.666v17.57c0 .92.75 1.674 1.666 1.674zm44.652-22.09c-.25-.334-.666-.586-1.083-.586l-1.916-.167v21.17c0 1.84-1.5 3.346-3.332 3.346H4.082c.083.753.667 1.423 1.5 1.506l38.404 4.352c.916.083 1.75-.586 1.832-1.507l2.5-26.859c.083-.418-.084-.92-.334-1.255z"/></g></g></svg>