<svg xmlns="http://www.w3.org/2000/svg" width="58" height="61" viewBox="0 0 58 61"><g><g><path fill="#fff" d="M58 14.249v31.94c0 .336-.199.644-.512.79L29.394 60.132a.931.931 0 0 1-.788 0L.512 46.98A.878.878 0 0 1 0 46.189v-31.94c0-.338.199-.645.512-.792L28.606.305a.936.936 0 0 1 .788 0l28.094 13.152a.877.877 0 0 1 .512.792zM21.484 5.592l25.832 12.092a.915.915 0 0 1 .153.094l7.54-3.53L29 2.074zM14.128 9.08l25.96 12.153 5.32-2.49L19.437 6.587zm26.919 13.656v9.205l4.969-2.325V20.41zm15.14 22.9V15.65l-8.359 3.913v10.605c0 .338-.199.645-.512.792l-6.781 3.175a.928.928 0 0 1-.876-.048.873.873 0 0 1-.425-.745V22.795l-.012-.016-27.227-12.745-9.004 4.215 19.622 9.186c.451.21.64.736.423 1.173a.91.91 0 0 1-.817.497.928.928 0 0 1-.394-.087L1.813 15.649v29.988l26.28 12.302V27.952L25.7 26.831a.867.867 0 0 1-.423-1.174.92.92 0 0 1 1.21-.41L29 26.426l6.387-2.99a.92.92 0 0 1 1.21.408.868.868 0 0 1-.422 1.174l-6.269 2.935V57.94zM9.715 43.403a.91.91 0 0 1-.817.497.928.928 0 0 1-.394-.088l-4.122-1.93a.868.868 0 0 1-.423-1.174.919.919 0 0 1 1.21-.409l4.124 1.93c.45.211.64.736.422 1.174zm3.794-2.395a.91.91 0 0 1-.817.497.925.925 0 0 1-.393-.088l-7.912-3.704a.867.867 0 0 1-.422-1.173.919.919 0 0 1 1.21-.41l7.912 3.704c.45.21.64.736.422 1.174z"/></g></g></svg>