<svg xmlns="http://www.w3.org/2000/svg" width="10" height="20" viewBox="0 0 10 20"><g><g><path fill="#33363c" d="M.32 10.652h2.17v9.025a.32.32 0 0 0 .318.323h3.68a.32.32 0 0 0 .319-.323v-8.982H9.3a.32.32 0 0 0 .318-.286l.378-3.323a.324.324 0 0 0-.078-.251.318.318 0 0 0-.239-.108H6.807V4.644c0-.628.335-.947.995-.947H9.68a.32.32 0 0 0 .32-.322V.325a.32.32 0 0 0-.32-.322H7.091A2.2 2.2 0 0 0 6.973 0c-.45 0-2.011.09-3.244 1.236-1.367 1.27-1.177 2.791-1.132 3.055v2.436H.32A.32.32 0 0 0 0 7.049v3.28c0 .178.143.323.32.323z"/></g></g></svg>