<svg xmlns="http://www.w3.org/2000/svg" width="13" height="13" viewBox="0 0 13 13"><g><g><path fill="#666" d="M11.917 9.745l-1.853-1.857c-.369-.37-.98-.358-1.362.025l-.933.936-.185-.103C6.995 8.42 6.188 7.97 5.34 7.118c-.852-.854-1.3-1.664-1.627-2.255l-.1-.18.626-.628.307-.31c.383-.383.394-.995.025-1.365L2.72.522c-.369-.37-.98-.358-1.362.026l-.523.526.015.014a3.02 3.02 0 0 0-.43.761c-.1.265-.163.519-.192.772-.244 2.033.682 3.893 3.197 6.415 3.477 3.486 6.279 3.222 6.4 3.21.263-.032.515-.095.771-.195.276-.108.534-.254.757-.43l.011.01.529-.52c.382-.383.393-.995.025-1.366z"/></g></g></svg>