<svg xmlns="http://www.w3.org/2000/svg" width="41" height="50" viewBox="0 0 41 50"><defs><clipPath id="wn2la"><path fill="#fff" d="M21.475 4.883a.973.973 0 0 1-1.073.97.972.972 0 0 1-.877-.97c0-.54.434-.976.975-.976.54 0 .975.435.975.976zM41 6.836v15.936c0 12.692-8.355 23.626-20.22 27.187a.971.971 0 0 1-.56 0C8.092 46.32 0 35.192 0 22.772V6.836c0-.54.437-.976.976-.976A4.888 4.888 0 0 0 5.857.976c0-.538.437-.976.976-.976h27.334c.539 0 .976.438.976.976a4.888 4.888 0 0 0 4.88 4.884c.54 0 .977.437.977.976zm-1.952.907a6.85 6.85 0 0 1-5.788-5.79H7.74a6.85 6.85 0 0 1-5.788 5.79v15.03c0 11.6 7.53 21.794 18.548 25.23 11.107-3.464 18.548-13.566 18.548-25.23zm-1.953 2.184v12.845c0 10.48-6.481 19.598-16.27 23.064a.979.979 0 0 1-.65 0c-9.797-3.469-16.27-12.593-16.27-23.064V9.927c0-.388.23-.74.584-.895a8.794 8.794 0 0 0 4.54-4.54.976.976 0 0 1 .894-.586h6.674a.976.976 0 0 1 0 1.954H10.54a10.733 10.733 0 0 1-4.683 4.684v12.228c0 9.557 5.735 17.803 14.643 21.104 8.908-3.3 14.643-11.547 14.643-21.104V10.544A10.733 10.733 0 0 1 30.46 5.86h-6.057a.977.977 0 0 1 0-1.953h6.674c.388 0 .739.23.894.585a8.794 8.794 0 0 0 4.54 4.541.977.977 0 0 1 .584.895zm-7.81 13.12c0 4.846-3.94 8.79-8.785 8.79-4.844 0-8.786-3.944-8.786-8.79 0-4.847 3.942-8.79 8.786-8.79 4.844 0 8.786 3.943 8.786 8.79zm-1.952 0c0-3.77-3.065-6.836-6.833-6.836-3.768 0-6.833 3.067-6.833 6.836 0 3.77 3.065 6.836 6.833 6.836 3.768 0 6.833-3.067 6.833-6.836zm-2.238-1.263l-4.88 4.883a.973.973 0 0 1-1.382 0l-1.952-1.953a.977.977 0 0 1 1.38-1.381l1.263 1.263 4.19-4.193a.976.976 0 1 1 1.381 1.381z"/></clipPath></defs><g><g><path fill="#666" d="M21.475 4.883a.973.973 0 0 1-1.073.97.972.972 0 0 1-.877-.97c0-.54.434-.976.975-.976.54 0 .975.435.975.976zM41 6.836v15.936c0 12.692-8.355 23.626-20.22 27.187a.971.971 0 0 1-.56 0C8.092 46.32 0 35.192 0 22.772V6.836c0-.54.437-.976.976-.976A4.888 4.888 0 0 0 5.857.976c0-.538.437-.976.976-.976h27.334c.539 0 .976.438.976.976a4.888 4.888 0 0 0 4.88 4.884c.54 0 .977.437.977.976zm-1.952.907a6.85 6.85 0 0 1-5.788-5.79H7.74a6.85 6.85 0 0 1-5.788 5.79v15.03c0 11.6 7.53 21.794 18.548 25.23 11.107-3.464 18.548-13.566 18.548-25.23zm-1.953 2.184v12.845c0 10.48-6.481 19.598-16.27 23.064a.979.979 0 0 1-.65 0c-9.797-3.469-16.27-12.593-16.27-23.064V9.927c0-.388.23-.74.584-.895a8.794 8.794 0 0 0 4.54-4.54.976.976 0 0 1 .894-.586h6.674a.976.976 0 0 1 0 1.954H10.54a10.733 10.733 0 0 1-4.683 4.684v12.228c0 9.557 5.735 17.803 14.643 21.104 8.908-3.3 14.643-11.547 14.643-21.104V10.544A10.733 10.733 0 0 1 30.46 5.86h-6.057a.977.977 0 0 1 0-1.953h6.674c.388 0 .739.23.894.585a8.794 8.794 0 0 0 4.54 4.541.977.977 0 0 1 .584.895zm-7.81 13.12c0 4.846-3.94 8.79-8.785 8.79-4.844 0-8.786-3.944-8.786-8.79 0-4.847 3.942-8.79 8.786-8.79 4.844 0 8.786 3.943 8.786 8.79zm-1.952 0c0-3.77-3.065-6.836-6.833-6.836-3.768 0-6.833 3.067-6.833 6.836 0 3.77 3.065 6.836 6.833 6.836 3.768 0 6.833-3.067 6.833-6.836zm-2.238-1.263l-4.88 4.883a.973.973 0 0 1-1.382 0l-1.952-1.953a.977.977 0 0 1 1.38-1.381l1.263 1.263 4.19-4.193a.976.976 0 1 1 1.381 1.381z"/><path fill="none" stroke="#eff1f4" stroke-miterlimit="50" stroke-width=".4" d="M21.475 4.883a.973.973 0 0 1-1.073.97.972.972 0 0 1-.877-.97c0-.54.434-.976.975-.976.54 0 .975.435.975.976zM41 6.836v15.936c0 12.692-8.355 23.626-20.22 27.187a.971.971 0 0 1-.56 0C8.092 46.32 0 35.192 0 22.772V6.836c0-.54.437-.976.976-.976A4.888 4.888 0 0 0 5.857.976c0-.538.437-.976.976-.976h27.334c.539 0 .976.438.976.976a4.888 4.888 0 0 0 4.88 4.884c.54 0 .977.437.977.976zm-1.952.907a6.85 6.85 0 0 1-5.788-5.79H7.74a6.85 6.85 0 0 1-5.788 5.79v15.03c0 11.6 7.53 21.794 18.548 25.23 11.107-3.464 18.548-13.566 18.548-25.23zm-1.953 2.184v12.845c0 10.48-6.481 19.598-16.27 23.064a.979.979 0 0 1-.65 0c-9.797-3.469-16.27-12.593-16.27-23.064V9.927c0-.388.23-.74.584-.895a8.794 8.794 0 0 0 4.54-4.54.976.976 0 0 1 .894-.586h6.674a.976.976 0 0 1 0 1.954H10.54a10.733 10.733 0 0 1-4.683 4.684v12.228c0 9.557 5.735 17.803 14.643 21.104 8.908-3.3 14.643-11.547 14.643-21.104V10.544A10.733 10.733 0 0 1 30.46 5.86h-6.057a.977.977 0 0 1 0-1.953h6.674c.388 0 .739.23.894.585a8.794 8.794 0 0 0 4.54 4.541.977.977 0 0 1 .584.895zm-7.81 13.12c0 4.846-3.94 8.79-8.785 8.79-4.844 0-8.786-3.944-8.786-8.79 0-4.847 3.942-8.79 8.786-8.79 4.844 0 8.786 3.943 8.786 8.79zm-1.952 0c0-3.77-3.065-6.836-6.833-6.836-3.768 0-6.833 3.067-6.833 6.836 0 3.77 3.065 6.836 6.833 6.836 3.768 0 6.833-3.067 6.833-6.836zm-2.238-1.263l-4.88 4.883a.973.973 0 0 1-1.382 0l-1.952-1.953a.977.977 0 0 1 1.38-1.381l1.263 1.263 4.19-4.193a.976.976 0 1 1 1.381 1.381z" clip-path="url(&quot;#wn2la&quot;)"/></g></g></svg>