<svg xmlns="http://www.w3.org/2000/svg" width="51" height="46" viewBox="0 0 51 46"><g><g><path fill="#666" d="M6.113 3.346H7.78V6.69H6.113zM7.78 6.69h3.331v1.673H7.78zm-4.997 0h3.331v1.673h-3.33zm3.331 1.673H7.78v3.346H6.113zm5.83 14.219h1.666v2.508h-1.666zm1.666 2.508h2.498v1.673h-2.498zm-4.164 0h2.498v1.673H9.445zm2.498 1.674h1.666v2.509h-1.666zM27.766 0h1.666v2.51h-1.666zm1.666 2.51h2.498v1.672h-2.498zm-4.164 0h2.498v1.672h-2.498zm2.498 1.672h1.666v2.51h-1.666zM49.404 16.67a.817.817 0 0 1 .015.112l-.833 13.383v15a.834.834 0 0 1-.833.836h-3.33a.835.835 0 0 1-.834-.836V26.9c0-1.554-.21-2.243-.832-2.574l-.728.788a30.37 30.37 0 0 0-4.626 6.57l-5.35 10.259A7.512 7.512 0 0 1 25.373 46H2.703c-.86 0-1.657-.459-2.09-1.206a2.436 2.436 0 0 1 .871-3.323l19.058-11.165L38.39 6.928a4.878 4.878 0 0 1 3.855-1.91c1.247 0 2.478.293 3.593.854 3.954 1.993 5.55 6.827 3.567 10.798zM16.856 35.956a1.358 1.358 0 0 0 1.867.469l1.954-1.178 2.35-1.575L41.674 9.25c.162-.215.25-.478.25-.747a.992.992 0 0 0-.367-.816 1.254 1.254 0 0 0-1.096-.182l-.424.106a3.175 3.175 0 0 0-.326.335l-17.95 23.509a.852.852 0 0 1-.24.215l-4.581 2.682-.142.305c-.2.415-.179.904.058 1.3zm30.065 6.7h-1.666v1.673h1.666zm.684-23.574l-3.698 4c1.342.986 1.348 2.778 1.348 3.818v14.083h1.666V30.11zM42.954 6.734c.418.492.644 1.12.635 1.766a2.924 2.924 0 0 1-.596 1.765l-18.73 24.536a.806.806 0 0 1-.199.187l-2.498 1.673-1.989 1.2c-.408.246-.87.393-1.345.426a3.016 3.016 0 0 1-3.214-2.807L2.323 42.918a.757.757 0 0 0 .38 1.411h22.67a5.855 5.855 0 0 0 5.204-3.163l5.35-10.259a32.024 32.024 0 0 1 4.88-6.932l6.085-6.578a6.38 6.38 0 0 0 1.655-3.624c.391-3.495-2.113-6.647-5.593-7.04z"/></g></g></svg>