<svg xmlns="http://www.w3.org/2000/svg" width="19" height="17" viewBox="0 0 19 17"><g><g><path fill="#33363c" d="M18.438 6.946l-3.927 3.792.93 5.355c.008.05.011.121.011.214 0 .357-.147.536-.443.536a.881.881 0 0 1-.433-.129L9.72 14.186l-4.857 2.528a.923.923 0 0 1-.433.129c-.152 0-.265-.052-.34-.156a.627.627 0 0 1-.114-.38 1.7 1.7 0 0 1 .021-.214l.93-5.355L.99 6.946c-.18-.193-.27-.364-.27-.514 0-.264.201-.429.605-.493l5.43-.782L9.19.284c.137-.293.313-.44.53-.44.216 0 .393.147.53.44l2.434 4.873 5.43.782c.404.064.606.229.606.493 0 .157-.093.328-.28.514zm-2.11.128l-4.565-.664L9.72 2.32 7.674 6.41l-4.565.664 3.31 3.181-.79 4.51 4.09-2.132 4.078 2.132-.779-4.51z"/></g></g></svg>