<svg xmlns="http://www.w3.org/2000/svg" width="20" height="17" viewBox="0 0 20 17"><g><g><path fill="#33363c" d="M17.157 3.245c.897-.544 1.49-1.287 1.783-2.232a9.736 9.736 0 0 1-2.612.945c-.781-.83-1.771-1.25-2.956-1.25-1.159 0-2.138.4-2.937 1.181-.794.788-1.196 1.744-1.196 2.86 0 .339.044.641.13.899C5.952 5.532 3.123 4.132.894 1.437c-.378.66-.567 1.331-.567 2.026 0 1.427.61 2.559 1.828 3.39C1.461 6.793.848 6.62.327 6.336c0 1.019.304 1.871.911 2.62a4.03 4.03 0 0 0 2.35 1.417c-.346.088-.712.13-1.087.13-.347 0-.593-.03-.738-.091a3.88 3.88 0 0 0 1.434 2.02 4.088 4.088 0 0 0 2.391.815c-1.48 1.147-3.172 1.715-5.086 1.715-.47 0-.801-.006-1.003-.043 1.886 1.21 3.985 1.81 6.307 1.81 2.377 0 4.477-.595 6.305-1.784 1.827-1.183 3.176-2.643 4.043-4.36.87-1.718 1.302-3.504 1.302-5.37v-.513c.842-.626 1.524-1.33 2.044-2.108a9.145 9.145 0 0 1-2.343.65z"/></g></g></svg>