<svg xmlns="http://www.w3.org/2000/svg" width="36" height="32" viewBox="0 0 36 32"><g><g><path fill="#33363c" d="M34.868 13.166c-.726 3.025-2.403 5.775-4.848 7.954L17.613 32.004 5.415 21.12C2.97 18.94 1.293 16.19.567 13.166.064 11.069.23 9.783.27 9.539.78 4.008 4.762-.005 9.745-.005c3.266 0 6.181 1.72 7.876 4.572 1.71-2.815 4.75-4.572 8.07-4.572 4.983 0 8.964 4.013 9.475 9.545.04.244.206 1.53-.298 3.626zm-1.032-3.42c-.446-4.909-3.868-8.426-8.145-8.426-3.23 0-6.156 1.953-7.453 4.974l-.62 1.446-.62-1.446C15.678 3.227 12.9 1.32 9.744 1.32c-4.278 0-7.699 3.518-8.137 8.363l-.01.067c0 .008-.196 1.129.28 3.113.664 2.762 2.199 5.278 4.442 7.276L17.62 30.223l11.498-10.087c2.24-1.994 3.775-4.511 4.438-7.274.477-1.984.28-3.105.28-3.116z"/></g></g></svg>