<?xml version="1.0" encoding="utf-8"?><svg xmlns="http://www.w3.org/2000/svg" xmlns:xlink="http://www.w3.org/1999/xlink"><symbol viewBox="0 0 116.214 116.214" id="basket" xmlns="http://www.w3.org/2000/svg"><path d="M114.452 54.13c0-3.975-3.253-7.228-7.228-7.228H8.99c-3.975 0-7.227 3.253-7.227 7.228 0 3.379 2.358 6.214 5.504 6.995l9.966 47.148c0 4.368 3.573 7.941 7.941 7.941H92.34c4.368 0 7.941-3.573 7.941-7.941l10.075-47.663c2.411-1.174 4.096-3.63 4.096-6.48zM34.228 99.059a2.489 2.489 0 01-2.482 2.481h-.684a2.49 2.49 0 01-2.482-2.481V70.014a2.489 2.489 0 012.482-2.481h.684a2.489 2.489 0 012.482 2.481v29.045zm18.169 0a2.489 2.489 0 01-2.482 2.481h-.684a2.49 2.49 0 01-2.482-2.481V70.014a2.488 2.488 0 012.482-2.481h.684a2.489 2.489 0 012.482 2.481v29.045zm18.168 0a2.488 2.488 0 01-2.482 2.481H67.4a2.488 2.488 0 01-2.481-2.481V70.014a2.488 2.488 0 012.481-2.481h.684a2.489 2.489 0 012.482 2.481v29.045zm18.169 0a2.488 2.488 0 01-2.481 2.481h-.684a2.49 2.49 0 01-2.482-2.481V70.014a2.489 2.489 0 012.482-2.481h.684a2.488 2.488 0 012.481 2.481v29.045zM26.283 34.868C28.533 19.2 41.973 7.145 58.264 7.145c16.291 0 29.732 12.055 31.982 27.723.328 5.35 7.22 4.494 7.22 0C95.171 15.24 78.509 0 58.264 0 38.02 0 21.357 15.24 19.063 34.868c0 5.565 7.308 5.779 7.22 0z"/></symbol><symbol viewBox="0 0 19 7" id="basket-count-min" xmlns="http://www.w3.org/2000/svg"><path d="M17.032.144H1.764C.791.144.002 1.545.002 3.276c0 1.73.789 3.132 1.762 3.132h15.268c.973 0 1.762-1.402 1.762-3.132 0-1.73-.789-3.132-1.762-3.132z"/></symbol><symbol viewBox="0 0 19 19" id="basket-count-plus" xmlns="http://www.w3.org/2000/svg"><path d="M16.649 6.936H11.95V2.244A2.347 2.347 0 009.6-.102a2.347 2.347 0 00-2.348 2.346v4.692H2.555A2.347 2.347 0 00.206 9.28a2.347 2.347 0 002.349 2.345h4.698v4.692a2.347 2.347 0 002.349 2.346 2.347 2.347 0 002.349-2.346v-4.692h4.698a2.347 2.347 0 002.349-2.345 2.347 2.347 0 00-2.35-2.345z"/></symbol><symbol viewBox="0 0 24 24" id="delete" xmlns="http://www.w3.org/2000/svg"><path d="M15.58 11.993l7.667-7.666A2.536 2.536 0 0019.66.74l-7.666 7.667L4.327.742A2.536 2.536 0 00.741 4.328l7.667 7.666L.74 19.66a2.535 2.535 0 103.586 3.586l7.667-7.666 7.666 7.666a2.535 2.535 0 103.587-3.586z"/></symbol><symbol viewBox="0 0 324.98 324.98" id="file-upload" xmlns="http://www.w3.org/2000/svg"><path d="M124.552 321.113c-2.593 0-5.187-.978-7.18-2.94-4.029-3.966-4.081-10.446-.115-14.476l170.595-173.331c22.177-22.534 22.27-59.105.205-81.524l-7.685-7.809c-10.596-10.766-24.692-16.694-39.692-16.694-15.115 0-29.349 6.006-40.082 16.91L31.038 211.664c-14.098 14.322-14.158 37.63-.099 51.916l5.313 5.398c7.083 7.197 17.031 11.325 27.293 11.325 9.582 0 18.376-3.574 24.764-10.064l152.214-154.656c5.733-5.826 5.767-15.273.072-21.059l-2.837-2.884c-2.69-2.733-6.264-4.238-10.062-4.238-3.838 0-7.461 1.534-10.202 4.318L76.805 234.671c-3.966 4.028-10.446 4.08-14.476.115-4.029-3.965-4.081-10.446-.115-14.476L202.905 77.36c6.62-6.726 15.425-10.43 24.792-10.43 9.327 0 18.082 3.676 24.652 10.351l2.837 2.885c13.487 13.701 13.454 36.032-.073 49.776L102.901 284.599c-10.267 10.431-24.242 16.176-39.354 16.176-15.711 0-30.976-6.355-41.884-17.438l-5.313-5.397c-21.854-22.205-21.792-58.395.138-80.677l169.56-170.414c14.572-14.807 33.988-22.982 54.633-22.982 20.529 0 39.808 8.1 54.282 22.807l7.685 7.809c29.856 30.337 29.764 79.792-.207 110.244l-170.594 173.33a10.206 10.206 0 01-7.295 3.056z"/></symbol><symbol viewBox="0 0 21 21" id="payment-active" xmlns="http://www.w3.org/2000/svg"><defs><clipPath id="fa"><path d="M10.5 0C16.299 0 21 4.7 21 10.5S16.299 21 10.5 21 0 16.299 0 10.5 4.701 0 10.5 0z"/></clipPath><clipPath id="fb"><path d="M10.5 4a6.5 6.5 0 110 13 6.5 6.5 0 010-13z"/></clipPath></defs><path d="M10.5 0C16.299 0 21 4.7 21 10.5S16.299 21 10.5 21 0 16.299 0 10.5 4.701 0 10.5 0z"/><path d="M10.5 0C16.299 0 21 4.7 21 10.5S16.299 21 10.5 21 0 16.299 0 10.5 4.701 0 10.5 0z" clip-path="url(#fa)"/><path d="M10.5 4a6.5 6.5 0 110 13 6.5 6.5 0 010-13z"/><path d="M10.5 4a6.5 6.5 0 110 13 6.5 6.5 0 010-13z" clip-path="url(#fb)"/></symbol><symbol viewBox="0 0 21 21" id="payment-inactive" xmlns="http://www.w3.org/2000/svg"><defs><clipPath id="ga"><path d="M10.5 0C16.299 0 21 4.7 21 10.5S16.299 21 10.5 21 0 16.299 0 10.5 4.701 0 10.5 0z"/></clipPath></defs><path d="M10.5 0C16.299 0 21 4.7 21 10.5S16.299 21 10.5 21 0 16.299 0 10.5 4.701 0 10.5 0z"/><path d="M10.5 0C16.299 0 21 4.7 21 10.5S16.299 21 10.5 21 0 16.299 0 10.5 4.701 0 10.5 0z" clip-path="url(#ga)"/></symbol><symbol viewBox="0 0 14 14" id="phone" xmlns="http://www.w3.org/2000/svg"><path d="M12.695 10.3c.298.295.455.647.455 1.013 0 .364-.154.718-.447 1.023-.127.133-.257.26-.384.38-.187.181-.364.35-.518.536-.003.006-.009.008-.012.015-.45.487-1.024.732-1.707.732-.06 0-.125-.003-.187-.006-1.015-.065-1.923-.446-2.604-.768A13.924 13.924 0 012.654 9.6C1.586 8.317.87 7.12.39 5.83.195 5.302-.06 4.5.012 3.636a2.16 2.16 0 01.642-1.374L1.66 1.249l.006-.006C1.962.96 2.31.81 2.672.81s.704.15.991.434c.193.178.38.367.557.55.088.095.183.19.275.28l.808.807c.621.621.621 1.425 0 2.045l-.249.251c-.219.222-.444.452-.686.674.18.399.429.792.799 1.259.763.937 1.559 1.66 2.435 2.216.086.053.186.103.293.156.074.039.15.077.228.119l.935-.931c.299-.299.648-.455 1.012-.455.367 0 .713.16 1 .458zm-.569.558l-1.63-1.628-.006-.006c-.092-.1-.243-.215-.426-.215-.187 0-.346.12-.447.221l-1.012 1.011c-.05.05-.204.204-.45.204a.64.64 0 01-.293-.074c-.012-.006-.023-.015-.035-.02a3.717 3.717 0 00-.293-.158 3.989 3.989 0 01-.364-.197c-.95-.6-1.811-1.383-2.628-2.388l-.003-.003c-.45-.57-.745-1.049-.956-1.557a3.339 3.339 0 01-.008-.027c-.054-.168-.101-.416.153-.67.003-.006.01-.01.015-.015.258-.23.494-.467.743-.721.086-.083.169-.169.254-.254.314-.313.314-.603 0-.916l-.807-.807c-.095-.098-.19-.192-.282-.286a14.96 14.96 0 00-.532-.53l-.01-.008c-.094-.095-.245-.207-.431-.207-.151 0-.305.074-.45.21L1.22 2.824a1.355 1.355 0 00-.408.878c-.045.54.056 1.114.331 1.85.447 1.205 1.122 2.328 2.13 3.542A13.137 13.137 0 007.64 12.51c.613.293 1.43.635 2.309.691.044.003.091.003.136.003.461 0 .813-.15 1.112-.47.184-.215.38-.407.571-.59.128-.124.246-.237.361-.36-.003.002-.003 0 0 0 .302-.314.302-.624-.003-.926zm-4.882-7.99a.401.401 0 01.462-.324 4.557 4.557 0 012.47 1.28 4.554 4.554 0 011.282 2.466.399.399 0 01-.329.461c-.023.003-.044.006-.068.006a.397.397 0 01-.393-.33 3.766 3.766 0 00-1.06-2.04A3.756 3.756 0 007.566 3.33a.394.394 0 01-.322-.46zm6.424 3.762c-.023.003-.044.006-.068.006a.397.397 0 01-.393-.331 6.69 6.69 0 00-1.885-3.631A6.726 6.726 0 007.685.79a.398.398 0 11.13-.786 7.51 7.51 0 014.069 2.107 7.494 7.494 0 012.11 4.063.392.392 0 01-.326.455z"/></symbol><symbol viewBox="0 0 16 16" id="search-field" xmlns="http://www.w3.org/2000/svg"><path d="M6.055 12.236C2.717 12.236.001 9.49.001 6.118 0 2.744 2.717-.001 6.055-.001c3.339 0 6.055 2.745 6.055 6.119 0 1.12-.3 2.17-.821 3.074.093.05.19.122.287.219l3.989 4.031c.28.283.434.66.434 1.06s-.154.776-.434 1.059c-.28.283-.653.439-1.049.439-.396 0-.768-.156-1.048-.439l-3.99-4.031a1.284 1.284 0 01-.189-.242c-.936.6-2.045.948-3.234.948zm0-11.238C3.262.998.99 3.295.99 6.118s2.273 5.119 5.066 5.119c2.793 0 5.066-2.296 5.066-5.12 0-2.822-2.272-5.119-5.066-5.119zM2.476 4.224a.243.243 0 01-.126-.035.251.251 0 01-.086-.343 4.42 4.42 0 013.791-2.182c.137 0 .247.112.247.25s-.11.25-.247.25A3.926 3.926 0 002.69 4.1a.246.246 0 01-.213.123zm-.58 1.997a.249.249 0 01-.248-.25c0-.354.042-.552.116-.87a.247.247 0 11.481.113c-.07.3-.102.457-.102.757 0 .138-.11.25-.248.25zm8.282 4.603l3.988 4.03a.503.503 0 00.7 0 .5.5 0 000-.706l-3.99-4.03a.226.226 0 00-.064-.052c-.003.003-.105.016-.387.301-.282.285-.296.388-.297.399.002 0 .015.023.05.058z"/></symbol><symbol viewBox="0 0 14 14" id="timetable" xmlns="http://www.w3.org/2000/svg"><path d="M14 7a6.958 6.958 0 01-2.05 4.95A6.955 6.955 0 017 14a6.955 6.955 0 01-4.95-2.05A6.955 6.955 0 010 7c0-1.87.728-3.628 2.05-4.95A6.954 6.954 0 017 0c1.87 0 3.627.727 4.95 2.05A6.954 6.954 0 0114 7zm-.438 0a6.52 6.52 0 00-1.922-4.641A6.52 6.52 0 007 .437a6.52 6.52 0 00-4.64 1.922 6.52 6.52 0 00-1.923 4.64 6.52 6.52 0 001.922 4.64A6.518 6.518 0 007 13.562a6.518 6.518 0 004.641-1.923A6.519 6.519 0 0013.562 7zM2.76 10.79a.219.219 0 01-.326.293 6.116 6.116 0 01-1.56-4.084c0-1.636.638-3.174 1.795-4.33A6.085 6.085 0 016.999.873c1.219 0 2.396.357 3.404 1.032a.22.22 0 01-.244.364A5.66 5.66 0 007 1.312a5.694 5.694 0 00-5.687 5.687c0 1.402.515 2.748 1.448 3.792zM13.125 7a6.085 6.085 0 01-1.794 4.33A6.086 6.086 0 017 13.124a6.139 6.139 0 01-3.857-1.366.219.219 0 11.276-.34 5.7 5.7 0 003.58 1.269 5.694 5.694 0 005.688-5.688 5.66 5.66 0 00-.957-3.16.219.219 0 01.363-.243 6.098 6.098 0 011.032 3.403zm-2.35-4.55a.219.219 0 01.308-.016c.158.142.31.293.454.45a.218.218 0 11-.324.294 5.723 5.723 0 00-.422-.418.219.219 0 01-.017-.309zm-3.994.174v-.656a.219.219 0 11.438 0v.656a.219.219 0 01-.438 0zM7 11.155a.22.22 0 01.219.22v.655a.219.219 0 11-.438 0v-.656A.22.22 0 017 11.155zM2.625 7.218h-.657a.219.219 0 010-.437h.657a.219.219 0 110 .437zm8.75-.437h.656a.218.218 0 110 .437h-.656a.219.219 0 110-.437zM4.922 3.4a.218.218 0 01-.3-.08l-.327-.568a.219.219 0 11.379-.22l.328.569a.219.219 0 01-.08.299zm4.783 7.847a.219.219 0 01-.379.219l-.328-.569a.219.219 0 11.379-.218zM2.453 9.624a.219.219 0 01.08-.299l.569-.328a.219.219 0 01.218.38l-.568.327a.219.219 0 01-.299-.08zM10.6 4.921a.219.219 0 01.08-.299l.569-.328a.219.219 0 01.218.379L10.898 5a.217.217 0 01-.299-.08zm-.894-2.17l-.328.569a.219.219 0 11-.38-.219l.329-.568a.219.219 0 11.379.219zm-4.703 8.146l-.328.569a.218.218 0 11-.38-.219l.329-.568a.219.219 0 01.379.218zm5.597-1.82a.219.219 0 01.3-.08l.567.328a.219.219 0 01-.218.38l-.569-.329a.219.219 0 01-.08-.299zM3.4 4.921a.219.219 0 01-.298.08l-.569-.328a.218.218 0 11.219-.379l.568.328a.22.22 0 01.08.3zm4.933 4.825L7.12 7.644a.657.657 0 01-.34-1.264V3.5a.219.219 0 11.438 0v2.88a.658.658 0 01.28 1.045l1.213 2.102a.219.219 0 01-.379.219zM7 7.218a.22.22 0 000-.437.219.219 0 000 .437z" opacity=".56"/></symbol><symbol viewBox="0 0 31.494 31.494" id="to-back" xmlns="http://www.w3.org/2000/svg"><path d="M10.273 5.009a1.112 1.112 0 011.587 0 1.12 1.12 0 010 1.571l-8.047 8.047h26.554c.619 0 1.127.492 1.127 1.111s-.508 1.127-1.127 1.127H3.813l8.047 8.032c.429.444.429 1.159 0 1.587a1.112 1.112 0 01-1.587 0L.321 16.532a1.12 1.12 0 010-1.571l9.952-9.952z"/></symbol></svg>