<?xml version="1.0" encoding="utf-8"?><svg xmlns="http://www.w3.org/2000/svg" xmlns:xlink="http://www.w3.org/1999/xlink"><symbol viewBox="0 0 31 32" id="basket-prev" xmlns="http://www.w3.org/2000/svg"><path d="M28.158 32H3.157c-1.549 0-2.7-1.202-2.472-2.723L2.694 2.18A2.464 2.464 0 015.166 0h20.976c1.236 0 2.335.954 2.472 2.181l2.015 27.096C30.857 30.779 29.595 32 28.158 32zm1.099-2.586l-2.01-27.096c-.07-.542-.552-1.018-1.098-1.018H5.166v.065c-.553 0-1.028.405-1.1 1.019L2.057 29.407c-.13.823.514 1.228 1.1 1.228h25c.794 0 1.217-.62 1.1-1.22zm-6.868-24.85v6.63c0 3.676-3.018 6.674-6.725 6.674-3.708 0-6.726-2.991-6.726-6.674V4.578a.69.69 0 011.379 0v6.616c0 2.925 2.394 5.302 5.34 5.302 2.947 0 5.34-2.377 5.34-5.302V4.558c0-.379.306-.685.69-.685.383 0 .696.306.702.692z"/></symbol><symbol viewBox="0 0 14 11" id="email_icon" xmlns="http://www.w3.org/2000/svg"><path d="M14 9.167c0 .321-.086.62-.225.881l-4.42-5.181L13.727.859c.17.283.273.615.273.974zM.917.23c.248-.142.53-.23.833-.23h10.5c.303 0 .584.088.834.23L7 5.809zm12.256 10.487a1.67 1.67 0 01-.923.282H1.75c-.34 0-.655-.106-.923-.282L5.303 5.47l1.41 1.291a.426.426 0 00.575 0L8.696 5.47zM4.645 4.866l-4.42 5.182A1.877 1.877 0 010 9.167V1.833c0-.359.103-.69.273-.974z"/></symbol><symbol viewBox="0 0 13 13" id="phone_icon" xmlns="http://www.w3.org/2000/svg"><path d="M11.917 9.745l-1.853-1.857c-.369-.37-.98-.358-1.362.025l-.933.936-.185-.103C6.995 8.42 6.188 7.97 5.34 7.118c-.852-.854-1.3-1.664-1.627-2.255l-.1-.18.626-.628.307-.31c.383-.383.394-.995.025-1.365L2.72.522c-.369-.37-.98-.358-1.362.026l-.523.526.015.014a3.02 3.02 0 00-.43.761c-.1.265-.163.519-.192.772-.244 2.033.682 3.893 3.197 6.415 3.477 3.486 6.279 3.222 6.4 3.21a3.13 3.13 0 001.528-.625l.011.01.529-.52c.382-.383.393-.995.025-1.366z"/></symbol><symbol viewBox="0 0 20 20" id="search" xmlns="http://www.w3.org/2000/svg"><path d="M19.826 19.823a.586.586 0 01-.842 0l-4.862-4.86a8.496 8.496 0 01-5.593 2.092C3.828 17.055 0 13.228 0 8.528 0 3.827 3.823 0 8.53 0c4.7 0 8.529 3.822 8.529 8.528 0 2.137-.79 4.093-2.094 5.592l4.861 4.86a.6.6 0 010 .843zm-11.301-3.96c4.045 0 7.332-3.295 7.332-7.335s-3.287-7.33-7.332-7.33c-4.04 0-7.332 3.285-7.332 7.33 0 4.044 3.291 7.335 7.332 7.335z"/></symbol><symbol viewBox="0 0 36 32" id="wishlist" xmlns="http://www.w3.org/2000/svg"><path d="M34.868 13.166c-.726 3.025-2.403 5.775-4.848 7.954L17.613 32.004 5.415 21.12C2.97 18.94 1.293 16.19.567 13.166.064 11.069.23 9.783.27 9.539.78 4.008 4.762-.005 9.745-.005c3.266 0 6.181 1.72 7.876 4.572 1.71-2.815 4.75-4.572 8.07-4.572 4.983 0 8.964 4.013 9.475 9.545.04.244.206 1.53-.298 3.626zm-1.032-3.42c-.446-4.909-3.868-8.426-8.145-8.426-3.23 0-6.156 1.953-7.453 4.974l-.62 1.446-.62-1.446C15.678 3.227 12.9 1.32 9.744 1.32c-4.278 0-7.699 3.518-8.137 8.363l-.01.067c0 .008-.196 1.129.28 3.113.664 2.762 2.199 5.278 4.442 7.276L17.62 30.223l11.498-10.087c2.24-1.994 3.775-4.511 4.438-7.274.477-1.984.28-3.105.28-3.116z"/></symbol></svg>