<?xml version="1.0" encoding="utf-8"?><svg xmlns="http://www.w3.org/2000/svg" xmlns:xlink="http://www.w3.org/1999/xlink"><symbol viewBox="0 0 31 32" id="basket-prev" xmlns="http://www.w3.org/2000/svg"><path d="M28.158 32H3.157c-1.549 0-2.7-1.202-2.472-2.723L2.694 2.18A2.464 2.464 0 015.166 0h20.976c1.236 0 2.335.954 2.472 2.181l2.015 27.096C30.857 30.779 29.595 32 28.158 32zm1.099-2.586l-2.01-27.096c-.07-.542-.552-1.018-1.098-1.018H5.166v.065c-.553 0-1.028.405-1.1 1.019L2.057 29.407c-.13.823.514 1.228 1.1 1.228h25c.794 0 1.217-.62 1.1-1.22zm-6.868-24.85v6.63c0 3.676-3.018 6.674-6.725 6.674-3.708 0-6.726-2.991-6.726-6.674V4.578a.69.69 0 011.379 0v6.616c0 2.925 2.394 5.302 5.34 5.302 2.947 0 5.34-2.377 5.34-5.302V4.558c0-.379.306-.685.69-.685.383 0 .696.306.702.692z"/></symbol><symbol viewBox="0 0 48 51" id="box" xmlns="http://www.w3.org/2000/svg"><path d="M48 11.91v26.617a.73.73 0 01-.424.66l-23.25 10.96a.768.768 0 01-.652 0L.424 39.186a.73.73 0 01-.424-.66V11.91c0-.28.165-.537.424-.66L23.674.292a.769.769 0 01.652 0l23.25 10.96a.73.73 0 01.424.66zM17.78 4.697l21.378 10.078a.752.752 0 01.127.078l6.24-2.942L24 1.764zm-6.088 2.907l21.485 10.128 4.402-2.075L16.086 5.525zm22.278 11.38v7.671l4.112-1.938v-7.67zM46.5 38.068v-24.99l-6.918 3.261v8.838a.73.73 0 01-.424.66l-5.612 2.645a.77.77 0 01-.725-.04.729.729 0 01-.351-.62v-8.789l-.01-.013L9.926 8.4l-7.451 3.51 16.24 7.655a.725.725 0 01.349.978.752.752 0 01-.676.414.759.759 0 01-.326-.072L1.5 13.077v24.99l21.75 10.252V23.33l-1.982-.934a.725.725 0 01-.35-.977.758.758 0 011.002-.342l2.08.981 5.286-2.492a.759.759 0 011.001.34.725.725 0 01-.349.98L24.75 23.33v24.99zM8.04 36.204a.752.752 0 01-.676.415.754.754 0 01-.326-.074l-3.412-1.607a.726.726 0 01-.35-.98.758.758 0 011.003-.34l3.411 1.609c.373.175.53.613.35.977zm3.14-1.995a.752.752 0 01-1.002.34l-6.547-3.086a.725.725 0 01-.35-.977.758.758 0 011.002-.342l6.547 3.086c.373.176.53.614.35.979z"/></symbol><symbol viewBox="0 0 21.9 21.9" id="close" xmlns="http://www.w3.org/2000/svg"><path d="M14.1 11.3c-.2-.2-.2-.5 0-.7l7.5-7.5c.2-.2.3-.5.3-.7s-.1-.5-.3-.7L20.2.3c-.2-.2-.5-.3-.7-.3-.3 0-.5.1-.7.3l-7.5 7.5c-.2.2-.5.2-.7 0L3.1.3C2.9.1 2.6 0 2.4 0s-.5.1-.7.3L.3 1.7c-.2.2-.3.5-.3.7s.1.5.3.7l7.5 7.5c.2.2.2.5 0 .7L.3 18.8c-.2.2-.3.5-.3.7s.1.5.3.7l1.4 1.4c.2.2.5.3.7.3s.5-.1.7-.3l7.5-7.5c.2-.2.5-.2.7 0l7.5 7.5c.2.2.5.3.7.3s.5-.1.7-.3l1.4-1.4c.2-.2.3-.5.3-.7s-.1-.5-.3-.7l-7.5-7.5z"/></symbol><symbol viewBox="0 0 50 41" id="credit_card" xmlns="http://www.w3.org/2000/svg"><path d="M25.825 27.612v-7.53c0-.502.333-.837.833-.837h13.33c.499 0 .832.335.832.837v7.53c0 .502-.333.837-.833.837H26.658c-.5 0-.833-.335-.833-.837zm1.666-.836h11.663v-5.858H27.491zM3.332 16.735c0-.503.334-.837.833-.837h6.665c.5 0 .833.334.833.837 0 .502-.333.836-.833.836H4.165c-.5 0-.833-.334-.833-.836zm9.997 0c0-.503.333-.837.833-.837h6.665c.5 0 .833.334.833.837 0 .502-.333.836-.833.836h-6.665c-.5 0-.833-.334-.833-.836zm-9.997 3.347c0-.502.334-.837.833-.837h10.83c.5 0 .833.335.833.837s-.333.836-.833.836H4.165c-.5 0-.833-.334-.833-.836zm18.328 0c0 .502-.334.836-.833.836h-2.5c-.5 0-.833-.334-.833-.836s.334-.837.833-.837h2.5c.5 0 .833.335.833.837zm28.324-8.786l-2.5 26.86C47.319 39.744 45.82 41 44.153 41h-.333L5.332 36.65a3.251 3.251 0 01-2.945-3.32A3.358 3.358 0 010 30.123V3.347C0 1.507 1.5 0 3.332 0h38.321c1.833 0 3.332 1.506 3.332 3.347v4.024l2 .243c.916.084 1.666.502 2.249 1.255.583.67.833 1.59.75 2.427zm-48.318-.418H43.32v-5.02H1.666zm0-7.531v.837H43.32v-.837c0-.92-.75-1.673-1.666-1.673H3.333c-.917 0-1.667.752-1.667 1.673zm1.666 28.449h38.321c.917 0 1.666-.753 1.666-1.674v-17.57H1.666v17.57c0 .92.75 1.674 1.666 1.674zm44.652-22.09c-.25-.334-.666-.586-1.083-.586l-1.916-.167v21.17c0 1.84-1.5 3.346-3.332 3.346H4.082c.083.753.667 1.423 1.5 1.506l38.404 4.352c.916.083 1.75-.586 1.832-1.507l2.5-26.859c.083-.418-.084-.92-.334-1.255z"/></symbol><symbol viewBox="0 0 58 61" id="delivery" xmlns="http://www.w3.org/2000/svg"><path d="M58 14.249v31.94a.876.876 0 01-.512.79L29.394 60.132a.931.931 0 01-.788 0L.512 46.98A.878.878 0 010 46.189v-31.94c0-.338.199-.645.512-.792L28.606.305a.936.936 0 01.788 0l28.094 13.152a.877.877 0 01.512.792zM21.484 5.592l25.832 12.092a.915.915 0 01.153.094l7.54-3.53L29 2.074zM14.128 9.08l25.96 12.153 5.32-2.49L19.437 6.587zm26.919 13.656v9.205l4.969-2.325V20.41zm15.14 22.9V15.65l-8.359 3.913v10.605a.877.877 0 01-.512.792l-6.781 3.175a.928.928 0 01-.876-.048.873.873 0 01-.425-.745V22.795l-.012-.016-27.227-12.745-9.004 4.215 19.622 9.186c.451.21.64.736.423 1.173a.91.91 0 01-.817.497.928.928 0 01-.394-.087L1.813 15.649v29.988l26.28 12.302V27.952L25.7 26.831a.867.867 0 01-.423-1.174.92.92 0 011.21-.41L29 26.426l6.387-2.99a.92.92 0 011.21.408.868.868 0 01-.422 1.174l-6.269 2.935V57.94zM9.715 43.403a.91.91 0 01-.817.497.928.928 0 01-.394-.088l-4.122-1.93a.868.868 0 01-.423-1.174.919.919 0 011.21-.409l4.124 1.93c.45.211.64.736.422 1.174zm3.794-2.395a.91.91 0 01-.817.497.925.925 0 01-.393-.088l-7.912-3.704a.867.867 0 01-.422-1.173.919.919 0 011.21-.41l7.912 3.704c.45.21.64.736.422 1.174z"/></symbol><symbol viewBox="0 0 129 129" id="down-arrow" xmlns="http://www.w3.org/2000/svg"><path d="M121.3 34.6c-1.6-1.6-4.2-1.6-5.8 0l-51 51.1-51.1-51.1c-1.6-1.6-4.2-1.6-5.8 0-1.6 1.6-1.6 4.2 0 5.8l53.9 53.9c.8.8 1.8 1.2 2.9 1.2 1 0 2.1-.4 2.9-1.2l53.9-53.9c1.7-1.6 1.7-4.2.1-5.8z"/></symbol><symbol viewBox="0 0 14 11" id="email_icon" xmlns="http://www.w3.org/2000/svg"><path d="M14 9.167c0 .321-.086.62-.225.881l-4.42-5.181L13.727.859c.17.283.273.615.273.974zM.917.23c.248-.142.53-.23.833-.23h10.5c.303 0 .584.088.834.23L7 5.809zm12.256 10.487a1.67 1.67 0 01-.923.282H1.75c-.34 0-.655-.106-.923-.282L5.303 5.47l1.41 1.291a.426.426 0 00.575 0L8.696 5.47zM4.645 4.866l-4.42 5.182A1.877 1.877 0 010 9.167V1.833c0-.359.103-.69.273-.974z"/></symbol><symbol viewBox="0 0 10 20" id="facebook" xmlns="http://www.w3.org/2000/svg"><path d="M.32 10.652h2.17v9.025a.32.32 0 00.318.323h3.68a.32.32 0 00.319-.323v-8.982H9.3a.32.32 0 00.318-.286l.378-3.323a.324.324 0 00-.078-.251.318.318 0 00-.239-.108H6.807V4.644c0-.628.335-.947.995-.947H9.68a.32.32 0 00.32-.322V.325a.32.32 0 00-.32-.322H7.091A2.2 2.2 0 006.973 0c-.45 0-2.011.09-3.244 1.236-1.367 1.27-1.177 2.791-1.132 3.055v2.436H.32a.32.32 0 00-.32.322v3.28c0 .178.143.323.32.323z"/></symbol><symbol viewBox="0 0 22 17" id="google" xmlns="http://www.w3.org/2000/svg"><path d="M16.616 7.767v2.49c-.746 3.65-4.16 6.399-8.058 6.399-4.45 0-8.058-3.582-8.058-8s3.608-8 8.058-8c2.196 0 4.186.873 5.639 2.286l-1.82 1.964a5.373 5.373 0 00-3.819-1.583c-2.967 0-5.372 2.388-5.372 5.333 0 2.945 2.405 5.333 5.372 5.333a5.37 5.37 0 005.126-3.733H9.095V7.767zM21.5 9.072h-1.538V10.6h-1.319V9.072h-1.538V7.763h1.538V6.236h1.319v1.527H21.5z"/></symbol><symbol viewBox="0 0 10 20" id="left_arrow" xmlns="http://www.w3.org/2000/svg"><path d="M9.807.174a.744.744 0 010 1.001l-8.229 8.8 8.229 8.817a.744.744 0 010 1.001.63.63 0 01-.934 0l-8.68-9.3a.746.746 0 010-1L8.873.191a.617.617 0 01.934-.017z"/></symbol><symbol viewBox="0 0 10 14" id="location_icon" xmlns="http://www.w3.org/2000/svg"><path d="M10 5.07c0 3.47-4.474 8.563-4.665 8.779a.446.446 0 01-.67 0C4.475 13.633 0 8.539 0 5.07 0 2.275 2.243 0 5 0s5 2.275 5 5.07zm-2.484 0c0-1.406-1.129-2.55-2.516-2.55S2.484 3.663 2.484 5.07c0 1.407 1.129 2.551 2.516 2.551s2.516-1.144 2.516-2.55z"/></symbol><symbol viewBox="0 0 13 13" id="phone_icon" xmlns="http://www.w3.org/2000/svg"><path d="M11.917 9.745l-1.853-1.857c-.369-.37-.98-.358-1.362.025l-.933.936-.185-.103C6.995 8.42 6.188 7.97 5.34 7.118c-.852-.854-1.3-1.664-1.627-2.255l-.1-.18.626-.628.307-.31c.383-.383.394-.995.025-1.365L2.72.522c-.369-.37-.98-.358-1.362.026l-.523.526.015.014a3.02 3.02 0 00-.43.761c-.1.265-.163.519-.192.772-.244 2.033.682 3.893 3.197 6.415 3.477 3.486 6.279 3.222 6.4 3.21a3.13 3.13 0 001.528-.625l.011.01.529-.52c.382-.383.393-.995.025-1.366z"/></symbol><symbol viewBox="0 0 10 20" id="right_arrow" xmlns="http://www.w3.org/2000/svg"><path d="M.193.206a.742.742 0 000 .999L8.422 9.99.193 18.794a.743.743 0 000 1 .631.631 0 00.934 0l8.68-9.286a.746.746 0 000-1L1.127.223A.618.618 0 00.193.206z"/></symbol><symbol viewBox="0 0 20 20" id="search" xmlns="http://www.w3.org/2000/svg"><path d="M19.826 19.823a.586.586 0 01-.842 0l-4.862-4.86a8.496 8.496 0 01-5.593 2.092C3.828 17.055 0 13.228 0 8.528 0 3.827 3.823 0 8.53 0c4.7 0 8.529 3.822 8.529 8.528 0 2.137-.79 4.093-2.094 5.592l4.861 4.86a.6.6 0 010 .843zm-11.301-3.96c4.045 0 7.332-3.295 7.332-7.335s-3.287-7.33-7.332-7.33c-4.04 0-7.332 3.285-7.332 7.33 0 4.044 3.291 7.335 7.332 7.335z"/></symbol><symbol viewBox="0 0 20 17" id="send" xmlns="http://www.w3.org/2000/svg"><path d="M0 17l20-8.5L0 0v6.61L14.286 8.5 0 10.389z"/></symbol><symbol viewBox="0 0 41 50" id="shield" xmlns="http://www.w3.org/2000/svg"><defs><clipPath id="pa"><path d="M21.475 4.883a.973.973 0 01-1.073.97.972.972 0 01-.877-.97c0-.54.434-.976.975-.976.54 0 .975.435.975.976zM41 6.836v15.936c0 12.692-8.355 23.626-20.22 27.187a.971.971 0 01-.56 0C8.092 46.32 0 35.192 0 22.772V6.836c0-.54.437-.976.976-.976A4.888 4.888 0 005.857.976c0-.538.437-.976.976-.976h27.334c.539 0 .976.438.976.976a4.888 4.888 0 004.88 4.884c.54 0 .977.437.977.976zm-1.952.907a6.85 6.85 0 01-5.788-5.79H7.74a6.85 6.85 0 01-5.788 5.79v15.03c0 11.6 7.53 21.794 18.548 25.23 11.107-3.464 18.548-13.566 18.548-25.23zm-1.953 2.184v12.845c0 10.48-6.481 19.598-16.27 23.064a.979.979 0 01-.65 0c-9.797-3.469-16.27-12.593-16.27-23.064V9.927c0-.388.23-.74.584-.895a8.794 8.794 0 004.54-4.54.976.976 0 01.894-.586h6.674a.976.976 0 010 1.954H10.54a10.733 10.733 0 01-4.683 4.684v12.228c0 9.557 5.735 17.803 14.643 21.104 8.908-3.3 14.643-11.547 14.643-21.104V10.544A10.733 10.733 0 0130.46 5.86h-6.057a.977.977 0 010-1.953h6.674c.388 0 .739.23.894.585a8.794 8.794 0 004.54 4.541.977.977 0 01.584.895zm-7.81 13.12c0 4.846-3.94 8.79-8.785 8.79-4.844 0-8.786-3.944-8.786-8.79 0-4.847 3.942-8.79 8.786-8.79 4.844 0 8.786 3.943 8.786 8.79zm-1.952 0c0-3.77-3.065-6.836-6.833-6.836-3.768 0-6.833 3.067-6.833 6.836 0 3.77 3.065 6.836 6.833 6.836 3.768 0 6.833-3.067 6.833-6.836zm-2.238-1.263l-4.88 4.883a.973.973 0 01-1.382 0l-1.952-1.953a.977.977 0 011.38-1.381l1.263 1.263 4.19-4.193a.976.976 0 111.381 1.381z"/></clipPath></defs><path d="M21.475 4.883a.973.973 0 01-1.073.97.972.972 0 01-.877-.97c0-.54.434-.976.975-.976.54 0 .975.435.975.976zM41 6.836v15.936c0 12.692-8.355 23.626-20.22 27.187a.971.971 0 01-.56 0C8.092 46.32 0 35.192 0 22.772V6.836c0-.54.437-.976.976-.976A4.888 4.888 0 005.857.976c0-.538.437-.976.976-.976h27.334c.539 0 .976.438.976.976a4.888 4.888 0 004.88 4.884c.54 0 .977.437.977.976zm-1.952.907a6.85 6.85 0 01-5.788-5.79H7.74a6.85 6.85 0 01-5.788 5.79v15.03c0 11.6 7.53 21.794 18.548 25.23 11.107-3.464 18.548-13.566 18.548-25.23zm-1.953 2.184v12.845c0 10.48-6.481 19.598-16.27 23.064a.979.979 0 01-.65 0c-9.797-3.469-16.27-12.593-16.27-23.064V9.927c0-.388.23-.74.584-.895a8.794 8.794 0 004.54-4.54.976.976 0 01.894-.586h6.674a.976.976 0 010 1.954H10.54a10.733 10.733 0 01-4.683 4.684v12.228c0 9.557 5.735 17.803 14.643 21.104 8.908-3.3 14.643-11.547 14.643-21.104V10.544A10.733 10.733 0 0130.46 5.86h-6.057a.977.977 0 010-1.953h6.674c.388 0 .739.23.894.585a8.794 8.794 0 004.54 4.541.977.977 0 01.584.895zm-7.81 13.12c0 4.846-3.94 8.79-8.785 8.79-4.844 0-8.786-3.944-8.786-8.79 0-4.847 3.942-8.79 8.786-8.79 4.844 0 8.786 3.943 8.786 8.79zm-1.952 0c0-3.77-3.065-6.836-6.833-6.836-3.768 0-6.833 3.067-6.833 6.836 0 3.77 3.065 6.836 6.833 6.836 3.768 0 6.833-3.067 6.833-6.836zm-2.238-1.263l-4.88 4.883a.973.973 0 01-1.382 0l-1.952-1.953a.977.977 0 011.38-1.381l1.263 1.263 4.19-4.193a.976.976 0 111.381 1.381z"/><path d="M21.475 4.883a.973.973 0 01-1.073.97.972.972 0 01-.877-.97c0-.54.434-.976.975-.976.54 0 .975.435.975.976zM41 6.836v15.936c0 12.692-8.355 23.626-20.22 27.187a.971.971 0 01-.56 0C8.092 46.32 0 35.192 0 22.772V6.836c0-.54.437-.976.976-.976A4.888 4.888 0 005.857.976c0-.538.437-.976.976-.976h27.334c.539 0 .976.438.976.976a4.888 4.888 0 004.88 4.884c.54 0 .977.437.977.976zm-1.952.907a6.85 6.85 0 01-5.788-5.79H7.74a6.85 6.85 0 01-5.788 5.79v15.03c0 11.6 7.53 21.794 18.548 25.23 11.107-3.464 18.548-13.566 18.548-25.23zm-1.953 2.184v12.845c0 10.48-6.481 19.598-16.27 23.064a.979.979 0 01-.65 0c-9.797-3.469-16.27-12.593-16.27-23.064V9.927c0-.388.23-.74.584-.895a8.794 8.794 0 004.54-4.54.976.976 0 01.894-.586h6.674a.976.976 0 010 1.954H10.54a10.733 10.733 0 01-4.683 4.684v12.228c0 9.557 5.735 17.803 14.643 21.104 8.908-3.3 14.643-11.547 14.643-21.104V10.544A10.733 10.733 0 0130.46 5.86h-6.057a.977.977 0 010-1.953h6.674c.388 0 .739.23.894.585a8.794 8.794 0 004.54 4.541.977.977 0 01.584.895zm-7.81 13.12c0 4.846-3.94 8.79-8.785 8.79-4.844 0-8.786-3.944-8.786-8.79 0-4.847 3.942-8.79 8.786-8.79 4.844 0 8.786 3.943 8.786 8.79zm-1.952 0c0-3.77-3.065-6.836-6.833-6.836-3.768 0-6.833 3.067-6.833 6.836 0 3.77 3.065 6.836 6.833 6.836 3.768 0 6.833-3.067 6.833-6.836zm-2.238-1.263l-4.88 4.883a.973.973 0 01-1.382 0l-1.952-1.953a.977.977 0 011.38-1.381l1.263 1.263 4.19-4.193a.976.976 0 111.381 1.381z" clip-path="url(#pa)"/></symbol><symbol viewBox="0 0 51 46" id="shoes" xmlns="http://www.w3.org/2000/svg"><path d="M6.113 3.346H7.78V6.69H6.113zM7.78 6.69h3.331v1.673H7.78zm-4.997 0h3.331v1.673h-3.33zm3.331 1.673H7.78v3.346H6.113zm5.83 14.219h1.666v2.508h-1.666zm1.666 2.508h2.498v1.673H13.61zm-4.164 0h2.498v1.673H9.445zm2.498 1.674h1.666v2.509h-1.666zM27.766 0h1.666v2.51h-1.666zm1.666 2.51h2.498v1.672h-2.498zm-4.164 0h2.498v1.672h-2.498zm2.498 1.672h1.666v2.51h-1.666zM49.404 16.67a.817.817 0 01.015.112l-.833 13.383v15a.834.834 0 01-.833.836h-3.33a.835.835 0 01-.834-.836V26.9c0-1.554-.21-2.243-.832-2.574l-.728.788a30.37 30.37 0 00-4.626 6.57l-5.35 10.259A7.512 7.512 0 0125.373 46H2.703c-.86 0-1.657-.459-2.09-1.206a2.436 2.436 0 01.871-3.323l19.058-11.165L38.39 6.928a4.878 4.878 0 013.855-1.91c1.247 0 2.478.293 3.593.854 3.954 1.993 5.55 6.827 3.567 10.798zM16.856 35.956a1.358 1.358 0 001.867.469l1.954-1.178 2.35-1.575L41.674 9.25c.162-.215.25-.478.25-.747a.992.992 0 00-.367-.816 1.254 1.254 0 00-1.096-.182l-.424.106a3.175 3.175 0 00-.326.335l-17.95 23.509a.852.852 0 01-.24.215l-4.581 2.682-.142.305c-.2.415-.179.904.058 1.3zm30.065 6.7h-1.666v1.673h1.666zm.684-23.574l-3.698 4c1.342.986 1.348 2.778 1.348 3.818v14.083h1.666V30.11zM42.954 6.734c.418.492.644 1.12.635 1.766a2.924 2.924 0 01-.596 1.765l-18.73 24.536a.806.806 0 01-.199.187l-2.498 1.673-1.989 1.2c-.408.246-.87.393-1.345.426a3.016 3.016 0 01-3.214-2.807L2.323 42.918a.757.757 0 00.38 1.411h22.67a5.855 5.855 0 005.204-3.163l5.35-10.259a32.024 32.024 0 014.88-6.932l6.085-6.578a6.38 6.38 0 001.655-3.624c.391-3.495-2.113-6.647-5.593-7.04z"/></symbol><symbol viewBox="0 0 20 17" id="twitter" xmlns="http://www.w3.org/2000/svg"><path d="M17.157 3.245c.897-.544 1.49-1.287 1.783-2.232a9.736 9.736 0 01-2.612.945c-.781-.83-1.771-1.25-2.956-1.25-1.159 0-2.138.4-2.937 1.181-.794.788-1.196 1.744-1.196 2.86 0 .339.044.641.13.899C5.952 5.532 3.123 4.132.894 1.437c-.378.66-.567 1.331-.567 2.026 0 1.427.61 2.559 1.828 3.39-.694-.06-1.307-.233-1.828-.517 0 1.019.304 1.871.911 2.62a4.03 4.03 0 002.35 1.417c-.346.088-.712.13-1.087.13-.347 0-.593-.03-.738-.091a3.88 3.88 0 001.434 2.02 4.088 4.088 0 002.391.815c-1.48 1.147-3.172 1.715-5.086 1.715-.47 0-.801-.006-1.003-.043 1.886 1.21 3.985 1.81 6.307 1.81 2.377 0 4.477-.595 6.305-1.784 1.827-1.183 3.176-2.643 4.043-4.36.87-1.718 1.302-3.504 1.302-5.37v-.513c.842-.626 1.524-1.33 2.044-2.108a9.145 9.145 0 01-2.343.65z"/></symbol><symbol viewBox="0 0 36 32" id="wishlist" xmlns="http://www.w3.org/2000/svg"><path d="M34.868 13.166c-.726 3.025-2.403 5.775-4.848 7.954L17.613 32.004 5.415 21.12C2.97 18.94 1.293 16.19.567 13.166.064 11.069.23 9.783.27 9.539.78 4.008 4.762-.005 9.745-.005c3.266 0 6.181 1.72 7.876 4.572 1.71-2.815 4.75-4.572 8.07-4.572 4.983 0 8.964 4.013 9.475 9.545.04.244.206 1.53-.298 3.626zm-1.032-3.42c-.446-4.909-3.868-8.426-8.145-8.426-3.23 0-6.156 1.953-7.453 4.974l-.62 1.446-.62-1.446C15.678 3.227 12.9 1.32 9.744 1.32c-4.278 0-7.699 3.518-8.137 8.363l-.01.067c0 .008-.196 1.129.28 3.113.664 2.762 2.199 5.278 4.442 7.276L17.62 30.223l11.498-10.087c2.24-1.994 3.775-4.511 4.438-7.274.477-1.984.28-3.105.28-3.116z"/></symbol></svg>