<?xml version="1.0" encoding="utf-8"?><svg xmlns="http://www.w3.org/2000/svg" width="16" height="16" viewBox="0 0 16 16"><path d="M12.08 7.985a4.087 4.087 0 01-4.094 4.094 4.087 4.087 0 01-4.093-4.094A4.088 4.088 0 017.986 3.89a4.088 4.088 0 014.094 4.095zm-4.094 2.661a2.666 2.666 0 002.662-2.661 2.664 2.664 0 00-2.662-2.662 2.664 2.664 0 00-2.66 2.662 2.666 2.666 0 002.66 2.661zm5.216-6.923a.953.953 0 01-.954.955.955.955 0 11.955-.955zm2.712.969c.074 1.318.074 5.267 0 6.585-.065 1.28-.357 2.413-1.29 3.347-.934.937-2.067 1.229-3.346 1.29-1.318.074-5.269.074-6.587 0-1.28-.065-2.408-.357-3.346-1.29C.41 13.69.116 12.556.055 11.277c-.074-1.318-.074-5.27 0-6.589C.12 3.41.41 2.276 1.346 1.342 2.283.408 3.415.116 4.691.056c1.318-.075 5.27-.075 6.587 0 1.28.064 2.412.356 3.346 1.29.937.933 1.229 2.067 1.29 3.346zM14.53 7.985c0-1.162.096-3.657-.32-4.708a2.696 2.696 0 00-1.518-1.518c-1.048-.413-3.545-.32-4.707-.32-1.161 0-3.655-.097-4.706.32-.702.282-1.24.82-1.518 1.518-.413 1.048-.32 3.546-.32 4.708 0 1.161-.097 3.656.32 4.707.282.702.82 1.24 1.518 1.518 1.048.414 3.545.32 4.706.32 1.162 0 3.656.097 4.707-.32a2.695 2.695 0 001.518-1.518c.416-1.048.32-3.546.32-4.707z"/></svg>